solid BALPLATGC
   facet normal -5.652216e-018 0.000000e+000 1.000000e+000
      outer loop
         vertex 2.275000e+001 9.000004e+000 6.000000e+000
         vertex 2.238157e+001 7.625006e+000 6.000000e+000
         vertex 2.650000e+001 0.000000e+000 6.000000e+000
      endloop
   endfacet
   facet normal -5.652216e-018 0.000000e+000 1.000000e+000
      outer loop
         vertex 2.650000e+001 0.000000e+000 6.000000e+000
         vertex 2.238157e+001 7.625006e+000 6.000000e+000
         vertex 2.137500e+001 6.618433e+000 6.000000e+000
      endloop
   endfacet
   facet normal -5.652216e-018 0.000000e+000 1.000000e+000
      outer loop
         vertex 2.650000e+001 0.000000e+000 6.000000e+000
         vertex 2.137500e+001 6.618433e+000 6.000000e+000
         vertex 1.350000e+001 0.000000e+000 6.000000e+000
      endloop
   endfacet
   facet normal -5.652216e-018 0.000000e+000 1.000000e+000
      outer loop
         vertex 1.350000e+001 0.000000e+000 6.000000e+000
         vertex 2.137500e+001 6.618433e+000 6.000000e+000
         vertex 2.000000e+001 6.250001e+000 6.000000e+000
      endloop
   endfacet
   facet normal -5.652216e-018 0.000000e+000 1.000000e+000
      outer loop
         vertex 1.350000e+001 0.000000e+000 6.000000e+000
         vertex 2.000000e+001 6.250001e+000 6.000000e+000
         vertex 1.862500e+001 6.618433e+000 6.000000e+000
      endloop
   endfacet
   facet normal -5.652216e-018 0.000000e+000 1.000000e+000
      outer loop
         vertex 1.862500e+001 1.513816e+002 6.000000e+000
         vertex 2.000000e+001 1.517500e+002 6.000000e+000
         vertex 1.350000e+001 1.580000e+002 6.000000e+000
      endloop
   endfacet
   facet normal -5.652216e-018 0.000000e+000 1.000000e+000
      outer loop
         vertex 2.560000e+001 6.040000e+001 6.000000e+000
         vertex 2.484974e+001 5.760000e+001 6.000000e+000
         vertex 2.650000e+001 0.000000e+000 6.000000e+000
      endloop
   endfacet
   facet normal -5.652216e-018 0.000000e+000 1.000000e+000
      outer loop
         vertex 2.650000e+001 0.000000e+000 6.000000e+000
         vertex 2.484974e+001 5.760000e+001 6.000000e+000
         vertex 2.280000e+001 5.555026e+001 6.000000e+000
      endloop
   endfacet
   facet normal -5.652216e-018 0.000000e+000 1.000000e+000
      outer loop
         vertex 2.650000e+001 0.000000e+000 6.000000e+000
         vertex 2.280000e+001 5.555026e+001 6.000000e+000
         vertex 2.275000e+001 9.000004e+000 6.000000e+000
      endloop
   endfacet
   facet normal -5.652216e-018 0.000000e+000 1.000000e+000
      outer loop
         vertex 2.275000e+001 9.000004e+000 6.000000e+000
         vertex 2.280000e+001 5.555026e+001 6.000000e+000
         vertex 2.238157e+001 1.037500e+001 6.000000e+000
      endloop
   endfacet
   facet normal -5.652216e-018 0.000000e+000 1.000000e+000
      outer loop
         vertex 1.350000e+001 1.580000e+002 6.000000e+000
         vertex 2.000000e+001 1.517500e+002 6.000000e+000
         vertex 2.650000e+001 1.580000e+002 6.000000e+000
      endloop
   endfacet
   facet normal -5.652216e-018 0.000000e+000 1.000000e+000
      outer loop
         vertex 2.238157e+001 1.476250e+002 6.000000e+000
         vertex 2.137500e+001 1.466184e+002 6.000000e+000
         vertex 1.440000e+001 9.760001e+001 6.000000e+000
      endloop
   endfacet
   facet normal -5.652216e-018 0.000000e+000 1.000000e+000
      outer loop
         vertex 1.440000e+001 9.760001e+001 6.000000e+000
         vertex 2.137500e+001 1.466184e+002 6.000000e+000
         vertex 2.000000e+001 1.462500e+002 6.000000e+000
      endloop
   endfacet
   facet normal -5.652216e-018 0.000000e+000 1.000000e+000
      outer loop
         vertex 1.440000e+001 9.760001e+001 6.000000e+000
         vertex 2.000000e+001 1.462500e+002 6.000000e+000
         vertex 1.862500e+001 1.466184e+002 6.000000e+000
      endloop
   endfacet
   facet normal -5.652216e-018 0.000000e+000 1.000000e+000
      outer loop
         vertex 2.238157e+001 1.476250e+002 6.000000e+000
         vertex 1.440000e+001 9.760001e+001 6.000000e+000
         vertex 2.275000e+001 1.490000e+002 6.000000e+000
      endloop
   endfacet
   facet normal -5.652216e-018 0.000000e+000 1.000000e+000
      outer loop
         vertex 2.275000e+001 1.490000e+002 6.000000e+000
         vertex 1.440000e+001 9.760001e+001 6.000000e+000
         vertex 1.515026e+001 1.004000e+002 6.000000e+000
      endloop
   endfacet
   facet normal -5.652216e-018 0.000000e+000 1.000000e+000
      outer loop
         vertex 2.275000e+001 1.490000e+002 6.000000e+000
         vertex 1.515026e+001 1.004000e+002 6.000000e+000
         vertex 1.720000e+001 1.024497e+002 6.000000e+000
      endloop
   endfacet
   facet normal -5.652216e-018 0.000000e+000 1.000000e+000
      outer loop
         vertex 1.440000e+001 6.040000e+001 6.000000e+000
         vertex 1.720000e+001 9.275026e+001 6.000000e+000
         vertex 1.515026e+001 9.480000e+001 6.000000e+000
      endloop
   endfacet
   facet normal -5.652216e-018 0.000000e+000 1.000000e+000
      outer loop
         vertex 2.000000e+001 1.517500e+002 6.000000e+000
         vertex 2.137500e+001 1.513816e+002 6.000000e+000
         vertex 2.650000e+001 1.580000e+002 6.000000e+000
      endloop
   endfacet
   facet normal -5.652216e-018 0.000000e+000 1.000000e+000
      outer loop
         vertex 2.650000e+001 1.580000e+002 6.000000e+000
         vertex 2.137500e+001 1.513816e+002 6.000000e+000
         vertex 2.238157e+001 1.503750e+002 6.000000e+000
      endloop
   endfacet
   facet normal -5.652216e-018 0.000000e+000 1.000000e+000
      outer loop
         vertex 2.650000e+001 1.580000e+002 6.000000e+000
         vertex 2.238157e+001 1.503750e+002 6.000000e+000
         vertex 2.275000e+001 1.490000e+002 6.000000e+000
      endloop
   endfacet
   facet normal -5.652216e-018 0.000000e+000 1.000000e+000
      outer loop
         vertex 2.560000e+001 9.760001e+001 6.000000e+000
         vertex 2.484974e+001 9.480000e+001 6.000000e+000
         vertex 2.280000e+001 6.524975e+001 6.000000e+000
      endloop
   endfacet
   facet normal -5.652216e-018 0.000000e+000 1.000000e+000
      outer loop
         vertex 2.280000e+001 6.524975e+001 6.000000e+000
         vertex 2.484974e+001 9.480000e+001 6.000000e+000
         vertex 2.280000e+001 9.275026e+001 6.000000e+000
      endloop
   endfacet
   facet normal -5.652216e-018 0.000000e+000 1.000000e+000
      outer loop
         vertex 2.280000e+001 6.524975e+001 6.000000e+000
         vertex 2.280000e+001 9.275026e+001 6.000000e+000
         vertex 2.000000e+001 6.600000e+001 6.000000e+000
      endloop
   endfacet
   facet normal -5.652216e-018 0.000000e+000 1.000000e+000
      outer loop
         vertex 2.000000e+001 6.600000e+001 6.000000e+000
         vertex 2.280000e+001 9.275026e+001 6.000000e+000
         vertex 2.000000e+001 9.200001e+001 6.000000e+000
      endloop
   endfacet
   facet normal -5.652216e-018 0.000000e+000 1.000000e+000
      outer loop
         vertex 2.000000e+001 6.600000e+001 6.000000e+000
         vertex 2.000000e+001 9.200001e+001 6.000000e+000
         vertex 1.720000e+001 6.524975e+001 6.000000e+000
      endloop
   endfacet
   facet normal -5.652216e-018 0.000000e+000 1.000000e+000
      outer loop
         vertex 1.720000e+001 6.524975e+001 6.000000e+000
         vertex 2.000000e+001 9.200001e+001 6.000000e+000
         vertex 1.720000e+001 9.275026e+001 6.000000e+000
      endloop
   endfacet
   facet normal -5.652216e-018 0.000000e+000 1.000000e+000
      outer loop
         vertex 1.720000e+001 6.524975e+001 6.000000e+000
         vertex 1.720000e+001 9.275026e+001 6.000000e+000
         vertex 1.515026e+001 6.320000e+001 6.000000e+000
      endloop
   endfacet
   facet normal -5.652216e-018 0.000000e+000 1.000000e+000
      outer loop
         vertex 1.515026e+001 6.320000e+001 6.000000e+000
         vertex 1.720000e+001 9.275026e+001 6.000000e+000
         vertex 1.440000e+001 6.040000e+001 6.000000e+000
      endloop
   endfacet
   facet normal -5.652216e-018 0.000000e+000 1.000000e+000
      outer loop
         vertex 2.650000e+001 0.000000e+000 6.000000e+000
         vertex 2.650000e+001 1.580000e+002 6.000000e+000
         vertex 2.560000e+001 6.040000e+001 6.000000e+000
      endloop
   endfacet
   facet normal -5.652216e-018 0.000000e+000 1.000000e+000
      outer loop
         vertex 2.560000e+001 6.040000e+001 6.000000e+000
         vertex 2.650000e+001 1.580000e+002 6.000000e+000
         vertex 2.560000e+001 9.760001e+001 6.000000e+000
      endloop
   endfacet
   facet normal -5.652216e-018 0.000000e+000 1.000000e+000
      outer loop
         vertex 2.560000e+001 6.040000e+001 6.000000e+000
         vertex 2.560000e+001 9.760001e+001 6.000000e+000
         vertex 2.484974e+001 6.320000e+001 6.000000e+000
      endloop
   endfacet
   facet normal -5.652216e-018 0.000000e+000 1.000000e+000
      outer loop
         vertex 2.484974e+001 6.320000e+001 6.000000e+000
         vertex 2.560000e+001 9.760001e+001 6.000000e+000
         vertex 2.280000e+001 6.524975e+001 6.000000e+000
      endloop
   endfacet
   facet normal -5.652216e-018 0.000000e+000 1.000000e+000
      outer loop
         vertex 1.720000e+001 1.024497e+002 6.000000e+000
         vertex 2.000000e+001 1.032000e+002 6.000000e+000
         vertex 2.275000e+001 1.490000e+002 6.000000e+000
      endloop
   endfacet
   facet normal -5.652216e-018 0.000000e+000 1.000000e+000
      outer loop
         vertex 2.275000e+001 1.490000e+002 6.000000e+000
         vertex 2.000000e+001 1.032000e+002 6.000000e+000
         vertex 2.280000e+001 1.024497e+002 6.000000e+000
      endloop
   endfacet
   facet normal -5.652216e-018 0.000000e+000 1.000000e+000
      outer loop
         vertex 2.275000e+001 1.490000e+002 6.000000e+000
         vertex 2.280000e+001 1.024497e+002 6.000000e+000
         vertex 2.650000e+001 1.580000e+002 6.000000e+000
      endloop
   endfacet
   facet normal -5.652216e-018 0.000000e+000 1.000000e+000
      outer loop
         vertex 2.650000e+001 1.580000e+002 6.000000e+000
         vertex 2.280000e+001 1.024497e+002 6.000000e+000
         vertex 2.484974e+001 1.004000e+002 6.000000e+000
      endloop
   endfacet
   facet normal -5.652216e-018 0.000000e+000 1.000000e+000
      outer loop
         vertex 2.650000e+001 1.580000e+002 6.000000e+000
         vertex 2.484974e+001 1.004000e+002 6.000000e+000
         vertex 2.560000e+001 9.760001e+001 6.000000e+000
      endloop
   endfacet
   facet normal -5.652216e-018 0.000000e+000 1.000000e+000
      outer loop
         vertex 1.862500e+001 6.618433e+000 6.000000e+000
         vertex 1.761843e+001 7.625006e+000 6.000000e+000
         vertex 1.350000e+001 0.000000e+000 6.000000e+000
      endloop
   endfacet
   facet normal -5.652216e-018 0.000000e+000 1.000000e+000
      outer loop
         vertex 1.350000e+001 0.000000e+000 6.000000e+000
         vertex 1.761843e+001 7.625006e+000 6.000000e+000
         vertex 1.725000e+001 9.000004e+000 6.000000e+000
      endloop
   endfacet
   facet normal -5.652216e-018 0.000000e+000 1.000000e+000
      outer loop
         vertex 1.350000e+001 0.000000e+000 6.000000e+000
         vertex 1.725000e+001 9.000004e+000 6.000000e+000
         vertex 1.720000e+001 5.555026e+001 6.000000e+000
      endloop
   endfacet
   facet normal -5.652216e-018 0.000000e+000 1.000000e+000
      outer loop
         vertex 1.350000e+001 1.580000e+002 6.000000e+000
         vertex 1.350000e+001 0.000000e+000 6.000000e+000
         vertex 1.440000e+001 9.760001e+001 6.000000e+000
      endloop
   endfacet
   facet normal -5.652216e-018 0.000000e+000 1.000000e+000
      outer loop
         vertex 1.725000e+001 9.000004e+000 6.000000e+000
         vertex 1.761843e+001 1.037500e+001 6.000000e+000
         vertex 1.720000e+001 5.555026e+001 6.000000e+000
      endloop
   endfacet
   facet normal -5.652216e-018 0.000000e+000 1.000000e+000
      outer loop
         vertex 1.720000e+001 5.555026e+001 6.000000e+000
         vertex 1.761843e+001 1.037500e+001 6.000000e+000
         vertex 1.862500e+001 1.138157e+001 6.000000e+000
      endloop
   endfacet
   facet normal -5.652216e-018 0.000000e+000 1.000000e+000
      outer loop
         vertex 1.720000e+001 5.555026e+001 6.000000e+000
         vertex 1.862500e+001 1.138157e+001 6.000000e+000
         vertex 2.000000e+001 5.480000e+001 6.000000e+000
      endloop
   endfacet
   facet normal -5.652216e-018 0.000000e+000 1.000000e+000
      outer loop
         vertex 2.000000e+001 5.480000e+001 6.000000e+000
         vertex 1.862500e+001 1.138157e+001 6.000000e+000
         vertex 2.000000e+001 1.175000e+001 6.000000e+000
      endloop
   endfacet
   facet normal -5.652216e-018 0.000000e+000 1.000000e+000
      outer loop
         vertex 2.000000e+001 5.480000e+001 6.000000e+000
         vertex 2.000000e+001 1.175000e+001 6.000000e+000
         vertex 2.280000e+001 5.555026e+001 6.000000e+000
      endloop
   endfacet
   facet normal -5.652216e-018 0.000000e+000 1.000000e+000
      outer loop
         vertex 2.280000e+001 5.555026e+001 6.000000e+000
         vertex 2.000000e+001 1.175000e+001 6.000000e+000
         vertex 2.137500e+001 1.138157e+001 6.000000e+000
      endloop
   endfacet
   facet normal -5.652216e-018 0.000000e+000 1.000000e+000
      outer loop
         vertex 2.280000e+001 5.555026e+001 6.000000e+000
         vertex 2.137500e+001 1.138157e+001 6.000000e+000
         vertex 2.238157e+001 1.037500e+001 6.000000e+000
      endloop
   endfacet
   facet normal -5.652216e-018 0.000000e+000 1.000000e+000
      outer loop
         vertex 1.515026e+001 9.480000e+001 6.000000e+000
         vertex 1.440000e+001 9.760001e+001 6.000000e+000
         vertex 1.440000e+001 6.040000e+001 6.000000e+000
      endloop
   endfacet
   facet normal -5.652216e-018 0.000000e+000 1.000000e+000
      outer loop
         vertex 1.440000e+001 6.040000e+001 6.000000e+000
         vertex 1.440000e+001 9.760001e+001 6.000000e+000
         vertex 1.350000e+001 0.000000e+000 6.000000e+000
      endloop
   endfacet
   facet normal -5.652216e-018 0.000000e+000 1.000000e+000
      outer loop
         vertex 1.440000e+001 6.040000e+001 6.000000e+000
         vertex 1.350000e+001 0.000000e+000 6.000000e+000
         vertex 1.515026e+001 5.760000e+001 6.000000e+000
      endloop
   endfacet
   facet normal -5.652216e-018 0.000000e+000 1.000000e+000
      outer loop
         vertex 1.515026e+001 5.760000e+001 6.000000e+000
         vertex 1.350000e+001 0.000000e+000 6.000000e+000
         vertex 1.720000e+001 5.555026e+001 6.000000e+000
      endloop
   endfacet
   facet normal -5.652216e-018 0.000000e+000 1.000000e+000
      outer loop
         vertex 1.862500e+001 1.466184e+002 6.000000e+000
         vertex 1.761843e+001 1.476250e+002 6.000000e+000
         vertex 1.440000e+001 9.760001e+001 6.000000e+000
      endloop
   endfacet
   facet normal -5.652216e-018 0.000000e+000 1.000000e+000
      outer loop
         vertex 1.440000e+001 9.760001e+001 6.000000e+000
         vertex 1.761843e+001 1.476250e+002 6.000000e+000
         vertex 1.725000e+001 1.490000e+002 6.000000e+000
      endloop
   endfacet
   facet normal -5.652216e-018 0.000000e+000 1.000000e+000
      outer loop
         vertex 1.440000e+001 9.760001e+001 6.000000e+000
         vertex 1.725000e+001 1.490000e+002 6.000000e+000
         vertex 1.350000e+001 1.580000e+002 6.000000e+000
      endloop
   endfacet
   facet normal -5.652216e-018 0.000000e+000 1.000000e+000
      outer loop
         vertex 1.350000e+001 1.580000e+002 6.000000e+000
         vertex 1.725000e+001 1.490000e+002 6.000000e+000
         vertex 1.761843e+001 1.503750e+002 6.000000e+000
      endloop
   endfacet
   facet normal -5.652216e-018 0.000000e+000 1.000000e+000
      outer loop
         vertex 1.350000e+001 1.580000e+002 6.000000e+000
         vertex 1.761843e+001 1.503750e+002 6.000000e+000
         vertex 1.862500e+001 1.513816e+002 6.000000e+000
      endloop
   endfacet
   facet normal 1.000000e+000 0.000000e+000 0.000000e+000
      outer loop
         vertex 2.650000e+001 0.000000e+000 3.500000e+000
         vertex 2.650000e+001 1.580000e+002 3.500000e+000
         vertex 2.650000e+001 0.000000e+000 6.000000e+000
      endloop
   endfacet
   facet normal 1.000000e+000 0.000000e+000 0.000000e+000
      outer loop
         vertex 2.650000e+001 0.000000e+000 6.000000e+000
         vertex 2.650000e+001 1.580000e+002 3.500000e+000
         vertex 2.650000e+001 1.580000e+002 6.000000e+000
      endloop
   endfacet
   facet normal 0.000000e+000 0.000000e+000 1.000000e+000
      outer loop
         vertex 4.000000e+001 0.000000e+000 3.500000e+000
         vertex 4.000000e+001 1.580000e+002 3.500000e+000
         vertex 2.650000e+001 0.000000e+000 3.500000e+000
      endloop
   endfacet
   facet normal 0.000000e+000 0.000000e+000 1.000000e+000
      outer loop
         vertex 2.650000e+001 0.000000e+000 3.500000e+000
         vertex 4.000000e+001 1.580000e+002 3.500000e+000
         vertex 2.650000e+001 1.580000e+002 3.500000e+000
      endloop
   endfacet
   facet normal 1.000000e+000 0.000000e+000 0.000000e+000
      outer loop
         vertex 4.000000e+001 0.000000e+000 0.000000e+000
         vertex 4.000000e+001 1.580000e+002 0.000000e+000
         vertex 4.000000e+001 0.000000e+000 3.500000e+000
      endloop
   endfacet
   facet normal 1.000000e+000 0.000000e+000 0.000000e+000
      outer loop
         vertex 4.000000e+001 0.000000e+000 3.500000e+000
         vertex 4.000000e+001 1.580000e+002 0.000000e+000
         vertex 4.000000e+001 1.580000e+002 3.500000e+000
      endloop
   endfacet
   facet normal 0.000000e+000 0.000000e+000 -1.000000e+000
      outer loop
         vertex 1.761843e+001 9.897501e+001 0.000000e+000
         vertex 1.725000e+001 9.760001e+001 0.000000e+000
         vertex 0.000000e+000 1.580000e+002 0.000000e+000
      endloop
   endfacet
   facet normal 0.000000e+000 0.000000e+000 -1.000000e+000
      outer loop
         vertex 0.000000e+000 0.000000e+000 0.000000e+000
         vertex 1.440000e+001 9.000004e+000 0.000000e+000
         vertex 1.515026e+001 6.200001e+000 0.000000e+000
      endloop
   endfacet
   facet normal 0.000000e+000 0.000000e+000 -1.000000e+000
      outer loop
         vertex 2.137500e+001 9.521844e+001 0.000000e+000
         vertex 2.238157e+001 9.622500e+001 0.000000e+000
         vertex 4.000000e+001 0.000000e+000 0.000000e+000
      endloop
   endfacet
   facet normal 0.000000e+000 0.000000e+000 -1.000000e+000
      outer loop
         vertex 4.000000e+001 0.000000e+000 0.000000e+000
         vertex 2.238157e+001 9.622500e+001 0.000000e+000
         vertex 2.275000e+001 9.760001e+001 0.000000e+000
      endloop
   endfacet
   facet normal 0.000000e+000 0.000000e+000 -1.000000e+000
      outer loop
         vertex 4.000000e+001 0.000000e+000 0.000000e+000
         vertex 2.275000e+001 9.760001e+001 0.000000e+000
         vertex 4.000000e+001 1.580000e+002 0.000000e+000
      endloop
   endfacet
   facet normal 0.000000e+000 0.000000e+000 -1.000000e+000
      outer loop
         vertex 4.000000e+001 1.580000e+002 0.000000e+000
         vertex 2.275000e+001 9.760001e+001 0.000000e+000
         vertex 2.238157e+001 9.897501e+001 0.000000e+000
      endloop
   endfacet
   facet normal 0.000000e+000 0.000000e+000 -1.000000e+000
      outer loop
         vertex 4.000000e+001 1.580000e+002 0.000000e+000
         vertex 2.238157e+001 9.897501e+001 0.000000e+000
         vertex 2.137500e+001 9.998158e+001 0.000000e+000
      endloop
   endfacet
   facet normal 0.000000e+000 0.000000e+000 -1.000000e+000
      outer loop
         vertex 0.000000e+000 1.580000e+002 0.000000e+000
         vertex 1.725000e+001 6.040000e+001 0.000000e+000
         vertex 0.000000e+000 0.000000e+000 0.000000e+000
      endloop
   endfacet
   facet normal 0.000000e+000 0.000000e+000 -1.000000e+000
      outer loop
         vertex 0.000000e+000 0.000000e+000 0.000000e+000
         vertex 1.725000e+001 6.040000e+001 0.000000e+000
         vertex 1.761843e+001 5.902501e+001 0.000000e+000
      endloop
   endfacet
   facet normal 0.000000e+000 0.000000e+000 -1.000000e+000
      outer loop
         vertex 0.000000e+000 0.000000e+000 0.000000e+000
         vertex 1.761843e+001 5.902501e+001 0.000000e+000
         vertex 1.862500e+001 5.801843e+001 0.000000e+000
      endloop
   endfacet
   facet normal 0.000000e+000 0.000000e+000 -1.000000e+000
      outer loop
         vertex 2.137500e+001 9.998158e+001 0.000000e+000
         vertex 2.000000e+001 1.003500e+002 0.000000e+000
         vertex 2.000000e+001 1.434000e+002 0.000000e+000
      endloop
   endfacet
   facet normal 0.000000e+000 0.000000e+000 -1.000000e+000
      outer loop
         vertex 2.000000e+001 1.434000e+002 0.000000e+000
         vertex 2.000000e+001 1.003500e+002 0.000000e+000
         vertex 1.720000e+001 1.441503e+002 0.000000e+000
      endloop
   endfacet
   facet normal 0.000000e+000 0.000000e+000 -1.000000e+000
      outer loop
         vertex 1.725000e+001 9.760001e+001 0.000000e+000
         vertex 1.862500e+001 6.278157e+001 0.000000e+000
         vertex 0.000000e+000 1.580000e+002 0.000000e+000
      endloop
   endfacet
   facet normal 0.000000e+000 0.000000e+000 -1.000000e+000
      outer loop
         vertex 0.000000e+000 1.580000e+002 0.000000e+000
         vertex 1.862500e+001 6.278157e+001 0.000000e+000
         vertex 1.761843e+001 6.177501e+001 0.000000e+000
      endloop
   endfacet
   facet normal 0.000000e+000 0.000000e+000 -1.000000e+000
      outer loop
         vertex 0.000000e+000 1.580000e+002 0.000000e+000
         vertex 1.761843e+001 6.177501e+001 0.000000e+000
         vertex 1.725000e+001 6.040000e+001 0.000000e+000
      endloop
   endfacet
   facet normal 0.000000e+000 0.000000e+000 -1.000000e+000
      outer loop
         vertex 1.440000e+001 9.000004e+000 0.000000e+000
         vertex 0.000000e+000 0.000000e+000 0.000000e+000
         vertex 1.515026e+001 1.180001e+001 0.000000e+000
      endloop
   endfacet
   facet normal 0.000000e+000 0.000000e+000 -1.000000e+000
      outer loop
         vertex 1.515026e+001 1.180001e+001 0.000000e+000
         vertex 0.000000e+000 0.000000e+000 0.000000e+000
         vertex 1.862500e+001 5.801843e+001 0.000000e+000
      endloop
   endfacet
   facet normal 0.000000e+000 0.000000e+000 -1.000000e+000
      outer loop
         vertex 1.515026e+001 1.180001e+001 0.000000e+000
         vertex 1.862500e+001 5.801843e+001 0.000000e+000
         vertex 1.720000e+001 1.384974e+001 0.000000e+000
      endloop
   endfacet
   facet normal 0.000000e+000 0.000000e+000 -1.000000e+000
      outer loop
         vertex 1.515026e+001 1.518000e+002 0.000000e+000
         vertex 1.440000e+001 1.490000e+002 0.000000e+000
         vertex 0.000000e+000 1.580000e+002 0.000000e+000
      endloop
   endfacet
   facet normal 0.000000e+000 0.000000e+000 -1.000000e+000
      outer loop
         vertex 0.000000e+000 1.580000e+002 0.000000e+000
         vertex 1.440000e+001 1.490000e+002 0.000000e+000
         vertex 1.515026e+001 1.462000e+002 0.000000e+000
      endloop
   endfacet
   facet normal 0.000000e+000 0.000000e+000 -1.000000e+000
      outer loop
         vertex 0.000000e+000 1.580000e+002 0.000000e+000
         vertex 1.515026e+001 1.462000e+002 0.000000e+000
         vertex 1.761843e+001 9.897501e+001 0.000000e+000
      endloop
   endfacet
   facet normal 0.000000e+000 0.000000e+000 -1.000000e+000
      outer loop
         vertex 1.761843e+001 9.897501e+001 0.000000e+000
         vertex 1.515026e+001 1.462000e+002 0.000000e+000
         vertex 1.720000e+001 1.441503e+002 0.000000e+000
      endloop
   endfacet
   facet normal 0.000000e+000 0.000000e+000 -1.000000e+000
      outer loop
         vertex 1.761843e+001 9.897501e+001 0.000000e+000
         vertex 1.720000e+001 1.441503e+002 0.000000e+000
         vertex 1.862500e+001 9.998158e+001 0.000000e+000
      endloop
   endfacet
   facet normal 0.000000e+000 0.000000e+000 -1.000000e+000
      outer loop
         vertex 1.862500e+001 9.998158e+001 0.000000e+000
         vertex 1.720000e+001 1.441503e+002 0.000000e+000
         vertex 2.000000e+001 1.003500e+002 0.000000e+000
      endloop
   endfacet
   facet normal 0.000000e+000 0.000000e+000 -1.000000e+000
      outer loop
         vertex 1.515026e+001 6.200001e+000 0.000000e+000
         vertex 1.720000e+001 4.150264e+000 0.000000e+000
         vertex 0.000000e+000 0.000000e+000 0.000000e+000
      endloop
   endfacet
   facet normal 0.000000e+000 0.000000e+000 -1.000000e+000
      outer loop
         vertex 0.000000e+000 0.000000e+000 0.000000e+000
         vertex 1.720000e+001 4.150264e+000 0.000000e+000
         vertex 2.000000e+001 3.400005e+000 0.000000e+000
      endloop
   endfacet
   facet normal 0.000000e+000 0.000000e+000 -1.000000e+000
      outer loop
         vertex 0.000000e+000 0.000000e+000 0.000000e+000
         vertex 2.000000e+001 3.400005e+000 0.000000e+000
         vertex 4.000000e+001 0.000000e+000 0.000000e+000
      endloop
   endfacet
   facet normal 0.000000e+000 0.000000e+000 -1.000000e+000
      outer loop
         vertex 4.000000e+001 0.000000e+000 0.000000e+000
         vertex 2.000000e+001 3.400005e+000 0.000000e+000
         vertex 2.280000e+001 4.150264e+000 0.000000e+000
      endloop
   endfacet
   facet normal 0.000000e+000 0.000000e+000 -1.000000e+000
      outer loop
         vertex 2.280000e+001 4.150264e+000 0.000000e+000
         vertex 2.484974e+001 6.200001e+000 0.000000e+000
         vertex 4.000000e+001 0.000000e+000 0.000000e+000
      endloop
   endfacet
   facet normal 0.000000e+000 0.000000e+000 -1.000000e+000
      outer loop
         vertex 4.000000e+001 0.000000e+000 0.000000e+000
         vertex 2.484974e+001 6.200001e+000 0.000000e+000
         vertex 2.560000e+001 9.000004e+000 0.000000e+000
      endloop
   endfacet
   facet normal 0.000000e+000 0.000000e+000 -1.000000e+000
      outer loop
         vertex 4.000000e+001 0.000000e+000 0.000000e+000
         vertex 2.560000e+001 9.000004e+000 0.000000e+000
         vertex 2.484974e+001 1.180001e+001 0.000000e+000
      endloop
   endfacet
   facet normal 0.000000e+000 0.000000e+000 -1.000000e+000
      outer loop
         vertex 2.238157e+001 5.902501e+001 0.000000e+000
         vertex 2.484974e+001 1.180001e+001 0.000000e+000
         vertex 2.280000e+001 1.384974e+001 0.000000e+000
      endloop
   endfacet
   facet normal 0.000000e+000 0.000000e+000 -1.000000e+000
      outer loop
         vertex 2.484974e+001 1.180001e+001 0.000000e+000
         vertex 2.238157e+001 5.902501e+001 0.000000e+000
         vertex 4.000000e+001 0.000000e+000 0.000000e+000
      endloop
   endfacet
   facet normal 0.000000e+000 0.000000e+000 -1.000000e+000
      outer loop
         vertex 4.000000e+001 0.000000e+000 0.000000e+000
         vertex 2.238157e+001 5.902501e+001 0.000000e+000
         vertex 2.275000e+001 6.040000e+001 0.000000e+000
      endloop
   endfacet
   facet normal 0.000000e+000 0.000000e+000 -1.000000e+000
      outer loop
         vertex 4.000000e+001 0.000000e+000 0.000000e+000
         vertex 2.275000e+001 6.040000e+001 0.000000e+000
         vertex 2.137500e+001 9.521844e+001 0.000000e+000
      endloop
   endfacet
   facet normal 0.000000e+000 0.000000e+000 -1.000000e+000
      outer loop
         vertex 2.275000e+001 6.040000e+001 0.000000e+000
         vertex 2.238157e+001 6.177501e+001 0.000000e+000
         vertex 2.137500e+001 9.521844e+001 0.000000e+000
      endloop
   endfacet
   facet normal 0.000000e+000 0.000000e+000 -1.000000e+000
      outer loop
         vertex 2.137500e+001 9.521844e+001 0.000000e+000
         vertex 2.238157e+001 6.177501e+001 0.000000e+000
         vertex 2.137500e+001 6.278157e+001 0.000000e+000
      endloop
   endfacet
   facet normal 0.000000e+000 0.000000e+000 -1.000000e+000
      outer loop
         vertex 2.137500e+001 9.521844e+001 0.000000e+000
         vertex 2.137500e+001 6.278157e+001 0.000000e+000
         vertex 2.000000e+001 9.485001e+001 0.000000e+000
      endloop
   endfacet
   facet normal 0.000000e+000 0.000000e+000 -1.000000e+000
      outer loop
         vertex 2.000000e+001 9.485001e+001 0.000000e+000
         vertex 2.137500e+001 6.278157e+001 0.000000e+000
         vertex 2.000000e+001 6.315001e+001 0.000000e+000
      endloop
   endfacet
   facet normal 0.000000e+000 0.000000e+000 -1.000000e+000
      outer loop
         vertex 2.000000e+001 9.485001e+001 0.000000e+000
         vertex 2.000000e+001 6.315001e+001 0.000000e+000
         vertex 1.862500e+001 9.521844e+001 0.000000e+000
      endloop
   endfacet
   facet normal 0.000000e+000 0.000000e+000 -1.000000e+000
      outer loop
         vertex 1.862500e+001 9.521844e+001 0.000000e+000
         vertex 2.000000e+001 6.315001e+001 0.000000e+000
         vertex 1.862500e+001 6.278157e+001 0.000000e+000
      endloop
   endfacet
   facet normal 0.000000e+000 0.000000e+000 -1.000000e+000
      outer loop
         vertex 1.862500e+001 9.521844e+001 0.000000e+000
         vertex 1.862500e+001 6.278157e+001 0.000000e+000
         vertex 1.761843e+001 9.622500e+001 0.000000e+000
      endloop
   endfacet
   facet normal 0.000000e+000 0.000000e+000 -1.000000e+000
      outer loop
         vertex 1.761843e+001 9.622500e+001 0.000000e+000
         vertex 1.862500e+001 6.278157e+001 0.000000e+000
         vertex 1.725000e+001 9.760001e+001 0.000000e+000
      endloop
   endfacet
   facet normal 0.000000e+000 0.000000e+000 -1.000000e+000
      outer loop
         vertex 2.000000e+001 1.434000e+002 0.000000e+000
         vertex 2.280000e+001 1.441503e+002 0.000000e+000
         vertex 2.137500e+001 9.998158e+001 0.000000e+000
      endloop
   endfacet
   facet normal 0.000000e+000 0.000000e+000 -1.000000e+000
      outer loop
         vertex 2.137500e+001 9.998158e+001 0.000000e+000
         vertex 2.280000e+001 1.441503e+002 0.000000e+000
         vertex 2.484974e+001 1.462000e+002 0.000000e+000
      endloop
   endfacet
   facet normal 0.000000e+000 0.000000e+000 -1.000000e+000
      outer loop
         vertex 2.137500e+001 9.998158e+001 0.000000e+000
         vertex 2.484974e+001 1.462000e+002 0.000000e+000
         vertex 4.000000e+001 1.580000e+002 0.000000e+000
      endloop
   endfacet
   facet normal 0.000000e+000 0.000000e+000 -1.000000e+000
      outer loop
         vertex 4.000000e+001 1.580000e+002 0.000000e+000
         vertex 2.484974e+001 1.462000e+002 0.000000e+000
         vertex 2.560000e+001 1.490000e+002 0.000000e+000
      endloop
   endfacet
   facet normal 0.000000e+000 0.000000e+000 -1.000000e+000
      outer loop
         vertex 4.000000e+001 1.580000e+002 0.000000e+000
         vertex 2.560000e+001 1.490000e+002 0.000000e+000
         vertex 2.484974e+001 1.518000e+002 0.000000e+000
      endloop
   endfacet
   facet normal 0.000000e+000 0.000000e+000 -1.000000e+000
      outer loop
         vertex 2.484974e+001 1.518000e+002 0.000000e+000
         vertex 2.280000e+001 1.538497e+002 0.000000e+000
         vertex 4.000000e+001 1.580000e+002 0.000000e+000
      endloop
   endfacet
   facet normal 0.000000e+000 0.000000e+000 -1.000000e+000
      outer loop
         vertex 4.000000e+001 1.580000e+002 0.000000e+000
         vertex 2.280000e+001 1.538497e+002 0.000000e+000
         vertex 2.000000e+001 1.546000e+002 0.000000e+000
      endloop
   endfacet
   facet normal 0.000000e+000 0.000000e+000 -1.000000e+000
      outer loop
         vertex 4.000000e+001 1.580000e+002 0.000000e+000
         vertex 2.000000e+001 1.546000e+002 0.000000e+000
         vertex 0.000000e+000 1.580000e+002 0.000000e+000
      endloop
   endfacet
   facet normal 0.000000e+000 0.000000e+000 -1.000000e+000
      outer loop
         vertex 0.000000e+000 1.580000e+002 0.000000e+000
         vertex 2.000000e+001 1.546000e+002 0.000000e+000
         vertex 1.720000e+001 1.538497e+002 0.000000e+000
      endloop
   endfacet
   facet normal 0.000000e+000 0.000000e+000 -1.000000e+000
      outer loop
         vertex 0.000000e+000 1.580000e+002 0.000000e+000
         vertex 1.720000e+001 1.538497e+002 0.000000e+000
         vertex 1.515026e+001 1.518000e+002 0.000000e+000
      endloop
   endfacet
   facet normal 0.000000e+000 0.000000e+000 -1.000000e+000
      outer loop
         vertex 1.720000e+001 1.384974e+001 0.000000e+000
         vertex 1.862500e+001 5.801843e+001 0.000000e+000
         vertex 2.000000e+001 1.460000e+001 0.000000e+000
      endloop
   endfacet
   facet normal 0.000000e+000 0.000000e+000 -1.000000e+000
      outer loop
         vertex 2.000000e+001 1.460000e+001 0.000000e+000
         vertex 1.862500e+001 5.801843e+001 0.000000e+000
         vertex 2.000000e+001 5.765001e+001 0.000000e+000
      endloop
   endfacet
   facet normal 0.000000e+000 0.000000e+000 -1.000000e+000
      outer loop
         vertex 2.000000e+001 1.460000e+001 0.000000e+000
         vertex 2.000000e+001 5.765001e+001 0.000000e+000
         vertex 2.280000e+001 1.384974e+001 0.000000e+000
      endloop
   endfacet
   facet normal 0.000000e+000 0.000000e+000 -1.000000e+000
      outer loop
         vertex 2.280000e+001 1.384974e+001 0.000000e+000
         vertex 2.000000e+001 5.765001e+001 0.000000e+000
         vertex 2.137500e+001 5.801843e+001 0.000000e+000
      endloop
   endfacet
   facet normal 0.000000e+000 0.000000e+000 -1.000000e+000
      outer loop
         vertex 2.280000e+001 1.384974e+001 0.000000e+000
         vertex 2.137500e+001 5.801843e+001 0.000000e+000
         vertex 2.238157e+001 5.902501e+001 0.000000e+000
      endloop
   endfacet
   facet normal -1.000000e+000 0.000000e+000 0.000000e+000
      outer loop
         vertex 1.350000e+001 0.000000e+000 6.000000e+000
         vertex 1.350000e+001 1.580000e+002 6.000000e+000
         vertex 1.350000e+001 0.000000e+000 3.500000e+000
      endloop
   endfacet
   facet normal -1.000000e+000 0.000000e+000 0.000000e+000
      outer loop
         vertex 1.350000e+001 0.000000e+000 3.500000e+000
         vertex 1.350000e+001 1.580000e+002 6.000000e+000
         vertex 1.350000e+001 1.580000e+002 3.500000e+000
      endloop
   endfacet
   facet normal 0.000000e+000 0.000000e+000 1.000000e+000
      outer loop
         vertex 1.350000e+001 0.000000e+000 3.500000e+000
         vertex 1.350000e+001 1.580000e+002 3.500000e+000
         vertex 0.000000e+000 0.000000e+000 3.500000e+000
      endloop
   endfacet
   facet normal 0.000000e+000 0.000000e+000 1.000000e+000
      outer loop
         vertex 0.000000e+000 0.000000e+000 3.500000e+000
         vertex 1.350000e+001 1.580000e+002 3.500000e+000
         vertex 0.000000e+000 1.580000e+002 3.500000e+000
      endloop
   endfacet
   facet normal -1.000000e+000 0.000000e+000 0.000000e+000
      outer loop
         vertex 0.000000e+000 0.000000e+000 3.500000e+000
         vertex 0.000000e+000 1.580000e+002 3.500000e+000
         vertex 0.000000e+000 0.000000e+000 0.000000e+000
      endloop
   endfacet
   facet normal -1.000000e+000 0.000000e+000 0.000000e+000
      outer loop
         vertex 0.000000e+000 0.000000e+000 0.000000e+000
         vertex 0.000000e+000 1.580000e+002 3.500000e+000
         vertex 0.000000e+000 1.580000e+002 0.000000e+000
      endloop
   endfacet
   facet normal 9.851210e-001 1.718619e-001 0.000000e+000
      outer loop
         vertex 1.761843e+001 1.476250e+002 6.000000e+000
         vertex 1.725000e+001 1.490000e+002 2.850000e+000
         vertex 1.725000e+001 1.490000e+002 6.000000e+000
      endloop
   endfacet
   facet normal 9.851210e-001 -1.718619e-001 0.000000e+000
      outer loop
         vertex 1.725000e+001 1.490000e+002 6.000000e+000
         vertex 1.725000e+001 1.490000e+002 2.850000e+000
         vertex 1.761843e+001 1.503750e+002 2.850000e+000
      endloop
   endfacet
   facet normal 9.390708e-001 -3.437238e-001 0.000000e+000
      outer loop
         vertex 1.725000e+001 1.490000e+002 6.000000e+000
         vertex 1.761843e+001 1.503750e+002 2.850000e+000
         vertex 1.761843e+001 1.503750e+002 6.000000e+000
      endloop
   endfacet
   facet normal 7.672089e-001 -6.413973e-001 0.000000e+000
      outer loop
         vertex 1.761843e+001 1.503750e+002 6.000000e+000
         vertex 1.761843e+001 1.503750e+002 2.850000e+000
         vertex 1.862500e+001 1.513816e+002 2.850000e+000
      endloop
   endfacet
   facet normal 6.413973e-001 -7.672089e-001 0.000000e+000
      outer loop
         vertex 1.761843e+001 1.503750e+002 6.000000e+000
         vertex 1.862500e+001 1.513816e+002 2.850000e+000
         vertex 1.862500e+001 1.513816e+002 6.000000e+000
      endloop
   endfacet
   facet normal 3.437238e-001 -9.390708e-001 0.000000e+000
      outer loop
         vertex 1.862500e+001 1.513816e+002 6.000000e+000
         vertex 1.862500e+001 1.513816e+002 2.850000e+000
         vertex 2.000000e+001 1.517500e+002 2.850000e+000
      endloop
   endfacet
   facet normal 1.718619e-001 -9.851210e-001 0.000000e+000
      outer loop
         vertex 1.862500e+001 1.513816e+002 6.000000e+000
         vertex 2.000000e+001 1.517500e+002 2.850000e+000
         vertex 2.000000e+001 1.517500e+002 6.000000e+000
      endloop
   endfacet
   facet normal -1.718619e-001 -9.851210e-001 0.000000e+000
      outer loop
         vertex 2.000000e+001 1.517500e+002 6.000000e+000
         vertex 2.000000e+001 1.517500e+002 2.850000e+000
         vertex 2.137500e+001 1.513816e+002 2.850000e+000
      endloop
   endfacet
   facet normal -3.437238e-001 -9.390708e-001 0.000000e+000
      outer loop
         vertex 2.000000e+001 1.517500e+002 6.000000e+000
         vertex 2.137500e+001 1.513816e+002 2.850000e+000
         vertex 2.137500e+001 1.513816e+002 6.000000e+000
      endloop
   endfacet
   facet normal -6.413973e-001 -7.672089e-001 0.000000e+000
      outer loop
         vertex 2.137500e+001 1.513816e+002 6.000000e+000
         vertex 2.137500e+001 1.513816e+002 2.850000e+000
         vertex 2.238157e+001 1.503750e+002 2.850000e+000
      endloop
   endfacet
   facet normal -7.672089e-001 -6.413973e-001 0.000000e+000
      outer loop
         vertex 2.137500e+001 1.513816e+002 6.000000e+000
         vertex 2.238157e+001 1.503750e+002 2.850000e+000
         vertex 2.238157e+001 1.503750e+002 6.000000e+000
      endloop
   endfacet
   facet normal -9.390708e-001 -3.437238e-001 0.000000e+000
      outer loop
         vertex 2.238157e+001 1.503750e+002 6.000000e+000
         vertex 2.238157e+001 1.503750e+002 2.850000e+000
         vertex 2.275000e+001 1.490000e+002 2.850000e+000
      endloop
   endfacet
   facet normal -9.851210e-001 -1.718619e-001 0.000000e+000
      outer loop
         vertex 2.238157e+001 1.503750e+002 6.000000e+000
         vertex 2.275000e+001 1.490000e+002 2.850000e+000
         vertex 2.275000e+001 1.490000e+002 6.000000e+000
      endloop
   endfacet
   facet normal -9.851210e-001 1.718619e-001 0.000000e+000
      outer loop
         vertex 2.275000e+001 1.490000e+002 6.000000e+000
         vertex 2.275000e+001 1.490000e+002 2.850000e+000
         vertex 2.238157e+001 1.476250e+002 2.850000e+000
      endloop
   endfacet
   facet normal -9.390708e-001 3.437238e-001 0.000000e+000
      outer loop
         vertex 2.275000e+001 1.490000e+002 6.000000e+000
         vertex 2.238157e+001 1.476250e+002 2.850000e+000
         vertex 2.238157e+001 1.476250e+002 6.000000e+000
      endloop
   endfacet
   facet normal -7.672089e-001 6.413973e-001 0.000000e+000
      outer loop
         vertex 2.238157e+001 1.476250e+002 6.000000e+000
         vertex 2.238157e+001 1.476250e+002 2.850000e+000
         vertex 2.137500e+001 1.466184e+002 2.850000e+000
      endloop
   endfacet
   facet normal -6.413973e-001 7.672089e-001 0.000000e+000
      outer loop
         vertex 2.238157e+001 1.476250e+002 6.000000e+000
         vertex 2.137500e+001 1.466184e+002 2.850000e+000
         vertex 2.137500e+001 1.466184e+002 6.000000e+000
      endloop
   endfacet
   facet normal -3.437238e-001 9.390708e-001 0.000000e+000
      outer loop
         vertex 2.137500e+001 1.466184e+002 6.000000e+000
         vertex 2.137500e+001 1.466184e+002 2.850000e+000
         vertex 2.000000e+001 1.462500e+002 2.850000e+000
      endloop
   endfacet
   facet normal -1.718619e-001 9.851210e-001 0.000000e+000
      outer loop
         vertex 2.137500e+001 1.466184e+002 6.000000e+000
         vertex 2.000000e+001 1.462500e+002 2.850000e+000
         vertex 2.000000e+001 1.462500e+002 6.000000e+000
      endloop
   endfacet
   facet normal 1.718619e-001 9.851210e-001 0.000000e+000
      outer loop
         vertex 2.000000e+001 1.462500e+002 6.000000e+000
         vertex 2.000000e+001 1.462500e+002 2.850000e+000
         vertex 1.862500e+001 1.466184e+002 2.850000e+000
      endloop
   endfacet
   facet normal 3.437238e-001 9.390708e-001 0.000000e+000
      outer loop
         vertex 2.000000e+001 1.462500e+002 6.000000e+000
         vertex 1.862500e+001 1.466184e+002 2.850000e+000
         vertex 1.862500e+001 1.466184e+002 6.000000e+000
      endloop
   endfacet
   facet normal 6.413973e-001 7.672089e-001 0.000000e+000
      outer loop
         vertex 1.862500e+001 1.466184e+002 6.000000e+000
         vertex 1.862500e+001 1.466184e+002 2.850000e+000
         vertex 1.761843e+001 1.476250e+002 2.850000e+000
      endloop
   endfacet
   facet normal 7.672089e-001 6.413973e-001 0.000000e+000
      outer loop
         vertex 1.862500e+001 1.466184e+002 6.000000e+000
         vertex 1.761843e+001 1.476250e+002 2.850000e+000
         vertex 1.761843e+001 1.476250e+002 6.000000e+000
      endloop
   endfacet
   facet normal 9.390708e-001 3.437238e-001 0.000000e+000
      outer loop
         vertex 1.761843e+001 1.476250e+002 6.000000e+000
         vertex 1.761843e+001 1.476250e+002 2.850000e+000
         vertex 1.725000e+001 1.490000e+002 2.850000e+000
      endloop
   endfacet
   facet normal -9.851210e-001 1.718619e-001 0.000000e+000
      outer loop
         vertex 2.238157e+001 9.622500e+001 0.000000e+000
         vertex 2.275000e+001 9.760001e+001 3.150000e+000
         vertex 2.275000e+001 9.760001e+001 0.000000e+000
      endloop
   endfacet
   facet normal -9.851210e-001 -1.718619e-001 0.000000e+000
      outer loop
         vertex 2.275000e+001 9.760001e+001 0.000000e+000
         vertex 2.275000e+001 9.760001e+001 3.150000e+000
         vertex 2.238157e+001 9.897501e+001 3.150000e+000
      endloop
   endfacet
   facet normal -9.390708e-001 -3.437238e-001 0.000000e+000
      outer loop
         vertex 2.275000e+001 9.760001e+001 0.000000e+000
         vertex 2.238157e+001 9.897501e+001 3.150000e+000
         vertex 2.238157e+001 9.897501e+001 0.000000e+000
      endloop
   endfacet
   facet normal -7.672089e-001 -6.413973e-001 0.000000e+000
      outer loop
         vertex 2.238157e+001 9.897501e+001 0.000000e+000
         vertex 2.238157e+001 9.897501e+001 3.150000e+000
         vertex 2.137500e+001 9.998158e+001 3.150000e+000
      endloop
   endfacet
   facet normal -6.413973e-001 -7.672089e-001 0.000000e+000
      outer loop
         vertex 2.238157e+001 9.897501e+001 0.000000e+000
         vertex 2.137500e+001 9.998158e+001 3.150000e+000
         vertex 2.137500e+001 9.998158e+001 0.000000e+000
      endloop
   endfacet
   facet normal -3.437238e-001 -9.390708e-001 0.000000e+000
      outer loop
         vertex 2.137500e+001 9.998158e+001 0.000000e+000
         vertex 2.137500e+001 9.998158e+001 3.150000e+000
         vertex 2.000000e+001 1.003500e+002 3.150000e+000
      endloop
   endfacet
   facet normal -1.718619e-001 -9.851210e-001 0.000000e+000
      outer loop
         vertex 2.137500e+001 9.998158e+001 0.000000e+000
         vertex 2.000000e+001 1.003500e+002 3.150000e+000
         vertex 2.000000e+001 1.003500e+002 0.000000e+000
      endloop
   endfacet
   facet normal 1.718619e-001 -9.851210e-001 0.000000e+000
      outer loop
         vertex 2.000000e+001 1.003500e+002 0.000000e+000
         vertex 2.000000e+001 1.003500e+002 3.150000e+000
         vertex 1.862500e+001 9.998158e+001 3.150000e+000
      endloop
   endfacet
   facet normal 3.437238e-001 -9.390708e-001 0.000000e+000
      outer loop
         vertex 2.000000e+001 1.003500e+002 0.000000e+000
         vertex 1.862500e+001 9.998158e+001 3.150000e+000
         vertex 1.862500e+001 9.998158e+001 0.000000e+000
      endloop
   endfacet
   facet normal 6.413973e-001 -7.672089e-001 0.000000e+000
      outer loop
         vertex 1.862500e+001 9.998158e+001 0.000000e+000
         vertex 1.862500e+001 9.998158e+001 3.150000e+000
         vertex 1.761843e+001 9.897501e+001 3.150000e+000
      endloop
   endfacet
   facet normal 7.672089e-001 -6.413973e-001 0.000000e+000
      outer loop
         vertex 1.862500e+001 9.998158e+001 0.000000e+000
         vertex 1.761843e+001 9.897501e+001 3.150000e+000
         vertex 1.761843e+001 9.897501e+001 0.000000e+000
      endloop
   endfacet
   facet normal 9.390708e-001 -3.437238e-001 0.000000e+000
      outer loop
         vertex 1.761843e+001 9.897501e+001 0.000000e+000
         vertex 1.761843e+001 9.897501e+001 3.150000e+000
         vertex 1.725000e+001 9.760001e+001 3.150000e+000
      endloop
   endfacet
   facet normal 9.851210e-001 -1.718619e-001 0.000000e+000
      outer loop
         vertex 1.761843e+001 9.897501e+001 0.000000e+000
         vertex 1.725000e+001 9.760001e+001 3.150000e+000
         vertex 1.725000e+001 9.760001e+001 0.000000e+000
      endloop
   endfacet
   facet normal 9.851210e-001 1.718619e-001 0.000000e+000
      outer loop
         vertex 1.725000e+001 9.760001e+001 0.000000e+000
         vertex 1.725000e+001 9.760001e+001 3.150000e+000
         vertex 1.761843e+001 9.622500e+001 3.150000e+000
      endloop
   endfacet
   facet normal 9.390708e-001 3.437238e-001 0.000000e+000
      outer loop
         vertex 1.725000e+001 9.760001e+001 0.000000e+000
         vertex 1.761843e+001 9.622500e+001 3.150000e+000
         vertex 1.761843e+001 9.622500e+001 0.000000e+000
      endloop
   endfacet
   facet normal 7.672089e-001 6.413973e-001 0.000000e+000
      outer loop
         vertex 1.761843e+001 9.622500e+001 0.000000e+000
         vertex 1.761843e+001 9.622500e+001 3.150000e+000
         vertex 1.862500e+001 9.521844e+001 3.150000e+000
      endloop
   endfacet
   facet normal 6.413973e-001 7.672089e-001 0.000000e+000
      outer loop
         vertex 1.761843e+001 9.622500e+001 0.000000e+000
         vertex 1.862500e+001 9.521844e+001 3.150000e+000
         vertex 1.862500e+001 9.521844e+001 0.000000e+000
      endloop
   endfacet
   facet normal 3.437238e-001 9.390708e-001 0.000000e+000
      outer loop
         vertex 1.862500e+001 9.521844e+001 0.000000e+000
         vertex 1.862500e+001 9.521844e+001 3.150000e+000
         vertex 2.000000e+001 9.485001e+001 3.150000e+000
      endloop
   endfacet
   facet normal 1.718619e-001 9.851210e-001 0.000000e+000
      outer loop
         vertex 1.862500e+001 9.521844e+001 0.000000e+000
         vertex 2.000000e+001 9.485001e+001 3.150000e+000
         vertex 2.000000e+001 9.485001e+001 0.000000e+000
      endloop
   endfacet
   facet normal -1.718619e-001 9.851210e-001 0.000000e+000
      outer loop
         vertex 2.000000e+001 9.485001e+001 0.000000e+000
         vertex 2.000000e+001 9.485001e+001 3.150000e+000
         vertex 2.137500e+001 9.521844e+001 3.150000e+000
      endloop
   endfacet
   facet normal -3.437238e-001 9.390708e-001 0.000000e+000
      outer loop
         vertex 2.000000e+001 9.485001e+001 0.000000e+000
         vertex 2.137500e+001 9.521844e+001 3.150000e+000
         vertex 2.137500e+001 9.521844e+001 0.000000e+000
      endloop
   endfacet
   facet normal -6.413973e-001 7.672089e-001 0.000000e+000
      outer loop
         vertex 2.137500e+001 9.521844e+001 0.000000e+000
         vertex 2.137500e+001 9.521844e+001 3.150000e+000
         vertex 2.238157e+001 9.622500e+001 3.150000e+000
      endloop
   endfacet
   facet normal -7.672089e-001 6.413973e-001 0.000000e+000
      outer loop
         vertex 2.137500e+001 9.521844e+001 0.000000e+000
         vertex 2.238157e+001 9.622500e+001 3.150000e+000
         vertex 2.238157e+001 9.622500e+001 0.000000e+000
      endloop
   endfacet
   facet normal -9.390708e-001 3.437238e-001 0.000000e+000
      outer loop
         vertex 2.238157e+001 9.622500e+001 0.000000e+000
         vertex 2.238157e+001 9.622500e+001 3.150000e+000
         vertex 2.275000e+001 9.760001e+001 3.150000e+000
      endloop
   endfacet
   facet normal -5.341103e-001 -4.465236e-001 7.178738e-001
      outer loop
         vertex 2.238157e+001 9.897501e+001 3.150000e+000
         vertex 2.484974e+001 1.004000e+002 6.000000e+000
         vertex 2.137500e+001 9.998158e+001 3.150000e+000
      endloop
   endfacet
   facet normal -4.465236e-001 -5.341103e-001 7.178738e-001
      outer loop
         vertex 2.137500e+001 9.998158e+001 3.150000e+000
         vertex 2.484974e+001 1.004000e+002 6.000000e+000
         vertex 2.280000e+001 1.024497e+002 6.000000e+000
      endloop
   endfacet
   facet normal -2.392913e-001 -6.537559e-001 7.178738e-001
      outer loop
         vertex 2.137500e+001 9.998158e+001 3.150000e+000
         vertex 2.280000e+001 1.024497e+002 6.000000e+000
         vertex 2.000000e+001 1.003500e+002 3.150000e+000
      endloop
   endfacet
   facet normal -1.196456e-001 -6.858149e-001 7.178738e-001
      outer loop
         vertex 2.000000e+001 1.003500e+002 3.150000e+000
         vertex 2.280000e+001 1.024497e+002 6.000000e+000
         vertex 2.000000e+001 1.032000e+002 6.000000e+000
      endloop
   endfacet
   facet normal 1.196456e-001 -6.858149e-001 7.178738e-001
      outer loop
         vertex 2.000000e+001 1.003500e+002 3.150000e+000
         vertex 2.000000e+001 1.032000e+002 6.000000e+000
         vertex 1.862500e+001 9.998158e+001 3.150000e+000
      endloop
   endfacet
   facet normal 2.392913e-001 -6.537559e-001 7.178738e-001
      outer loop
         vertex 1.862500e+001 9.998158e+001 3.150000e+000
         vertex 2.000000e+001 1.032000e+002 6.000000e+000
         vertex 1.720000e+001 1.024497e+002 6.000000e+000
      endloop
   endfacet
   facet normal 4.465236e-001 -5.341103e-001 7.178738e-001
      outer loop
         vertex 1.862500e+001 9.998158e+001 3.150000e+000
         vertex 1.720000e+001 1.024497e+002 6.000000e+000
         vertex 1.761843e+001 9.897501e+001 3.150000e+000
      endloop
   endfacet
   facet normal 5.341103e-001 -4.465236e-001 7.178738e-001
      outer loop
         vertex 1.761843e+001 9.897501e+001 3.150000e+000
         vertex 1.720000e+001 1.024497e+002 6.000000e+000
         vertex 1.515026e+001 1.004000e+002 6.000000e+000
      endloop
   endfacet
   facet normal 6.537559e-001 -2.392913e-001 7.178738e-001
      outer loop
         vertex 1.761843e+001 9.897501e+001 3.150000e+000
         vertex 1.515026e+001 1.004000e+002 6.000000e+000
         vertex 1.725000e+001 9.760001e+001 3.150000e+000
      endloop
   endfacet
   facet normal 6.858149e-001 -1.196456e-001 7.178738e-001
      outer loop
         vertex 1.725000e+001 9.760001e+001 3.150000e+000
         vertex 1.515026e+001 1.004000e+002 6.000000e+000
         vertex 1.440000e+001 9.760001e+001 6.000000e+000
      endloop
   endfacet
   facet normal 6.858149e-001 1.196456e-001 7.178738e-001
      outer loop
         vertex 1.725000e+001 9.760001e+001 3.150000e+000
         vertex 1.440000e+001 9.760001e+001 6.000000e+000
         vertex 1.761843e+001 9.622500e+001 3.150000e+000
      endloop
   endfacet
   facet normal 6.537559e-001 2.392913e-001 7.178738e-001
      outer loop
         vertex 1.761843e+001 9.622500e+001 3.150000e+000
         vertex 1.440000e+001 9.760001e+001 6.000000e+000
         vertex 1.515026e+001 9.480000e+001 6.000000e+000
      endloop
   endfacet
   facet normal 5.341103e-001 4.465236e-001 7.178738e-001
      outer loop
         vertex 1.761843e+001 9.622500e+001 3.150000e+000
         vertex 1.515026e+001 9.480000e+001 6.000000e+000
         vertex 1.862500e+001 9.521844e+001 3.150000e+000
      endloop
   endfacet
   facet normal 4.465236e-001 5.341103e-001 7.178738e-001
      outer loop
         vertex 1.862500e+001 9.521844e+001 3.150000e+000
         vertex 1.515026e+001 9.480000e+001 6.000000e+000
         vertex 1.720000e+001 9.275026e+001 6.000000e+000
      endloop
   endfacet
   facet normal 2.392913e-001 6.537559e-001 7.178738e-001
      outer loop
         vertex 1.862500e+001 9.521844e+001 3.150000e+000
         vertex 1.720000e+001 9.275026e+001 6.000000e+000
         vertex 2.000000e+001 9.485001e+001 3.150000e+000
      endloop
   endfacet
   facet normal 1.196456e-001 6.858149e-001 7.178738e-001
      outer loop
         vertex 2.000000e+001 9.485001e+001 3.150000e+000
         vertex 1.720000e+001 9.275026e+001 6.000000e+000
         vertex 2.000000e+001 9.200001e+001 6.000000e+000
      endloop
   endfacet
   facet normal -1.196456e-001 6.858149e-001 7.178738e-001
      outer loop
         vertex 2.000000e+001 9.485001e+001 3.150000e+000
         vertex 2.000000e+001 9.200001e+001 6.000000e+000
         vertex 2.137500e+001 9.521844e+001 3.150000e+000
      endloop
   endfacet
   facet normal -2.392913e-001 6.537559e-001 7.178738e-001
      outer loop
         vertex 2.137500e+001 9.521844e+001 3.150000e+000
         vertex 2.000000e+001 9.200001e+001 6.000000e+000
         vertex 2.280000e+001 9.275026e+001 6.000000e+000
      endloop
   endfacet
   facet normal -4.465236e-001 5.341103e-001 7.178738e-001
      outer loop
         vertex 2.137500e+001 9.521844e+001 3.150000e+000
         vertex 2.280000e+001 9.275026e+001 6.000000e+000
         vertex 2.238157e+001 9.622500e+001 3.150000e+000
      endloop
   endfacet
   facet normal -5.341103e-001 4.465236e-001 7.178738e-001
      outer loop
         vertex 2.238157e+001 9.622500e+001 3.150000e+000
         vertex 2.280000e+001 9.275026e+001 6.000000e+000
         vertex 2.484974e+001 9.480000e+001 6.000000e+000
      endloop
   endfacet
   facet normal -6.537559e-001 2.392913e-001 7.178738e-001
      outer loop
         vertex 2.238157e+001 9.622500e+001 3.150000e+000
         vertex 2.484974e+001 9.480000e+001 6.000000e+000
         vertex 2.275000e+001 9.760001e+001 3.150000e+000
      endloop
   endfacet
   facet normal -6.858149e-001 1.196456e-001 7.178738e-001
      outer loop
         vertex 2.275000e+001 9.760001e+001 3.150000e+000
         vertex 2.484974e+001 9.480000e+001 6.000000e+000
         vertex 2.560000e+001 9.760001e+001 6.000000e+000
      endloop
   endfacet
   facet normal -6.858149e-001 -1.196456e-001 7.178738e-001
      outer loop
         vertex 2.275000e+001 9.760001e+001 3.150000e+000
         vertex 2.560000e+001 9.760001e+001 6.000000e+000
         vertex 2.238157e+001 9.897501e+001 3.150000e+000
      endloop
   endfacet
   facet normal -6.537559e-001 -2.392913e-001 7.178738e-001
      outer loop
         vertex 2.238157e+001 9.897501e+001 3.150000e+000
         vertex 2.560000e+001 9.760001e+001 6.000000e+000
         vertex 2.484974e+001 1.004000e+002 6.000000e+000
      endloop
   endfacet
   facet normal 9.851210e-001 1.718619e-001 0.000000e+000
      outer loop
         vertex 1.761843e+001 7.625006e+000 6.000000e+000
         vertex 1.725000e+001 9.000004e+000 2.850000e+000
         vertex 1.725000e+001 9.000004e+000 6.000000e+000
      endloop
   endfacet
   facet normal 9.851210e-001 -1.718619e-001 0.000000e+000
      outer loop
         vertex 1.725000e+001 9.000004e+000 6.000000e+000
         vertex 1.725000e+001 9.000004e+000 2.850000e+000
         vertex 1.761843e+001 1.037500e+001 2.850000e+000
      endloop
   endfacet
   facet normal 9.390708e-001 -3.437238e-001 0.000000e+000
      outer loop
         vertex 1.725000e+001 9.000004e+000 6.000000e+000
         vertex 1.761843e+001 1.037500e+001 2.850000e+000
         vertex 1.761843e+001 1.037500e+001 6.000000e+000
      endloop
   endfacet
   facet normal 7.672089e-001 -6.413973e-001 0.000000e+000
      outer loop
         vertex 1.761843e+001 1.037500e+001 6.000000e+000
         vertex 1.761843e+001 1.037500e+001 2.850000e+000
         vertex 1.862500e+001 1.138157e+001 2.850000e+000
      endloop
   endfacet
   facet normal 6.413973e-001 -7.672089e-001 0.000000e+000
      outer loop
         vertex 1.761843e+001 1.037500e+001 6.000000e+000
         vertex 1.862500e+001 1.138157e+001 2.850000e+000
         vertex 1.862500e+001 1.138157e+001 6.000000e+000
      endloop
   endfacet
   facet normal 3.437238e-001 -9.390708e-001 0.000000e+000
      outer loop
         vertex 1.862500e+001 1.138157e+001 6.000000e+000
         vertex 1.862500e+001 1.138157e+001 2.850000e+000
         vertex 2.000000e+001 1.175000e+001 2.850000e+000
      endloop
   endfacet
   facet normal 1.718619e-001 -9.851210e-001 0.000000e+000
      outer loop
         vertex 1.862500e+001 1.138157e+001 6.000000e+000
         vertex 2.000000e+001 1.175000e+001 2.850000e+000
         vertex 2.000000e+001 1.175000e+001 6.000000e+000
      endloop
   endfacet
   facet normal -1.718619e-001 -9.851210e-001 0.000000e+000
      outer loop
         vertex 2.000000e+001 1.175000e+001 6.000000e+000
         vertex 2.000000e+001 1.175000e+001 2.850000e+000
         vertex 2.137500e+001 1.138157e+001 2.850000e+000
      endloop
   endfacet
   facet normal -3.437238e-001 -9.390708e-001 0.000000e+000
      outer loop
         vertex 2.000000e+001 1.175000e+001 6.000000e+000
         vertex 2.137500e+001 1.138157e+001 2.850000e+000
         vertex 2.137500e+001 1.138157e+001 6.000000e+000
      endloop
   endfacet
   facet normal -6.413973e-001 -7.672089e-001 0.000000e+000
      outer loop
         vertex 2.137500e+001 1.138157e+001 6.000000e+000
         vertex 2.137500e+001 1.138157e+001 2.850000e+000
         vertex 2.238157e+001 1.037500e+001 2.850000e+000
      endloop
   endfacet
   facet normal -7.672089e-001 -6.413973e-001 0.000000e+000
      outer loop
         vertex 2.137500e+001 1.138157e+001 6.000000e+000
         vertex 2.238157e+001 1.037500e+001 2.850000e+000
         vertex 2.238157e+001 1.037500e+001 6.000000e+000
      endloop
   endfacet
   facet normal -9.390708e-001 -3.437238e-001 0.000000e+000
      outer loop
         vertex 2.238157e+001 1.037500e+001 6.000000e+000
         vertex 2.238157e+001 1.037500e+001 2.850000e+000
         vertex 2.275000e+001 9.000004e+000 2.850000e+000
      endloop
   endfacet
   facet normal -9.851210e-001 -1.718619e-001 0.000000e+000
      outer loop
         vertex 2.238157e+001 1.037500e+001 6.000000e+000
         vertex 2.275000e+001 9.000004e+000 2.850000e+000
         vertex 2.275000e+001 9.000004e+000 6.000000e+000
      endloop
   endfacet
   facet normal -9.851210e-001 1.718619e-001 0.000000e+000
      outer loop
         vertex 2.275000e+001 9.000004e+000 6.000000e+000
         vertex 2.275000e+001 9.000004e+000 2.850000e+000
         vertex 2.238157e+001 7.625006e+000 2.850000e+000
      endloop
   endfacet
   facet normal -9.390708e-001 3.437238e-001 0.000000e+000
      outer loop
         vertex 2.275000e+001 9.000004e+000 6.000000e+000
         vertex 2.238157e+001 7.625006e+000 2.850000e+000
         vertex 2.238157e+001 7.625006e+000 6.000000e+000
      endloop
   endfacet
   facet normal -7.672089e-001 6.413973e-001 0.000000e+000
      outer loop
         vertex 2.238157e+001 7.625006e+000 6.000000e+000
         vertex 2.238157e+001 7.625006e+000 2.850000e+000
         vertex 2.137500e+001 6.618433e+000 2.850000e+000
      endloop
   endfacet
   facet normal -6.413973e-001 7.672089e-001 0.000000e+000
      outer loop
         vertex 2.238157e+001 7.625006e+000 6.000000e+000
         vertex 2.137500e+001 6.618433e+000 2.850000e+000
         vertex 2.137500e+001 6.618433e+000 6.000000e+000
      endloop
   endfacet
   facet normal -3.437238e-001 9.390708e-001 0.000000e+000
      outer loop
         vertex 2.137500e+001 6.618433e+000 6.000000e+000
         vertex 2.137500e+001 6.618433e+000 2.850000e+000
         vertex 2.000000e+001 6.250001e+000 2.850000e+000
      endloop
   endfacet
   facet normal -1.718619e-001 9.851210e-001 0.000000e+000
      outer loop
         vertex 2.137500e+001 6.618433e+000 6.000000e+000
         vertex 2.000000e+001 6.250001e+000 2.850000e+000
         vertex 2.000000e+001 6.250001e+000 6.000000e+000
      endloop
   endfacet
   facet normal 1.718619e-001 9.851210e-001 0.000000e+000
      outer loop
         vertex 2.000000e+001 6.250001e+000 6.000000e+000
         vertex 2.000000e+001 6.250001e+000 2.850000e+000
         vertex 1.862500e+001 6.618433e+000 2.850000e+000
      endloop
   endfacet
   facet normal 3.437238e-001 9.390708e-001 0.000000e+000
      outer loop
         vertex 2.000000e+001 6.250001e+000 6.000000e+000
         vertex 1.862500e+001 6.618433e+000 2.850000e+000
         vertex 1.862500e+001 6.618433e+000 6.000000e+000
      endloop
   endfacet
   facet normal 6.413973e-001 7.672089e-001 0.000000e+000
      outer loop
         vertex 1.862500e+001 6.618433e+000 6.000000e+000
         vertex 1.862500e+001 6.618433e+000 2.850000e+000
         vertex 1.761843e+001 7.625006e+000 2.850000e+000
      endloop
   endfacet
   facet normal 7.672089e-001 6.413973e-001 0.000000e+000
      outer loop
         vertex 1.862500e+001 6.618433e+000 6.000000e+000
         vertex 1.761843e+001 7.625006e+000 2.850000e+000
         vertex 1.761843e+001 7.625006e+000 6.000000e+000
      endloop
   endfacet
   facet normal 9.390708e-001 3.437238e-001 0.000000e+000
      outer loop
         vertex 1.761843e+001 7.625006e+000 6.000000e+000
         vertex 1.761843e+001 7.625006e+000 2.850000e+000
         vertex 1.725000e+001 9.000004e+000 2.850000e+000
      endloop
   endfacet
   facet normal -9.851210e-001 1.718619e-001 0.000000e+000
      outer loop
         vertex 2.238157e+001 5.902501e+001 0.000000e+000
         vertex 2.275000e+001 6.040000e+001 3.150000e+000
         vertex 2.275000e+001 6.040000e+001 0.000000e+000
      endloop
   endfacet
   facet normal -9.851210e-001 -1.718619e-001 0.000000e+000
      outer loop
         vertex 2.275000e+001 6.040000e+001 0.000000e+000
         vertex 2.275000e+001 6.040000e+001 3.150000e+000
         vertex 2.238157e+001 6.177501e+001 3.150000e+000
      endloop
   endfacet
   facet normal -9.390708e-001 -3.437238e-001 0.000000e+000
      outer loop
         vertex 2.275000e+001 6.040000e+001 0.000000e+000
         vertex 2.238157e+001 6.177501e+001 3.150000e+000
         vertex 2.238157e+001 6.177501e+001 0.000000e+000
      endloop
   endfacet
   facet normal -7.672089e-001 -6.413973e-001 0.000000e+000
      outer loop
         vertex 2.238157e+001 6.177501e+001 0.000000e+000
         vertex 2.238157e+001 6.177501e+001 3.150000e+000
         vertex 2.137500e+001 6.278157e+001 3.150000e+000
      endloop
   endfacet
   facet normal -6.413973e-001 -7.672089e-001 0.000000e+000
      outer loop
         vertex 2.238157e+001 6.177501e+001 0.000000e+000
         vertex 2.137500e+001 6.278157e+001 3.150000e+000
         vertex 2.137500e+001 6.278157e+001 0.000000e+000
      endloop
   endfacet
   facet normal -3.437238e-001 -9.390708e-001 0.000000e+000
      outer loop
         vertex 2.137500e+001 6.278157e+001 0.000000e+000
         vertex 2.137500e+001 6.278157e+001 3.150000e+000
         vertex 2.000000e+001 6.315001e+001 3.150000e+000
      endloop
   endfacet
   facet normal -1.718619e-001 -9.851210e-001 0.000000e+000
      outer loop
         vertex 2.137500e+001 6.278157e+001 0.000000e+000
         vertex 2.000000e+001 6.315001e+001 3.150000e+000
         vertex 2.000000e+001 6.315001e+001 0.000000e+000
      endloop
   endfacet
   facet normal 1.718619e-001 -9.851210e-001 0.000000e+000
      outer loop
         vertex 2.000000e+001 6.315001e+001 0.000000e+000
         vertex 2.000000e+001 6.315001e+001 3.150000e+000
         vertex 1.862500e+001 6.278157e+001 3.150000e+000
      endloop
   endfacet
   facet normal 3.437238e-001 -9.390708e-001 0.000000e+000
      outer loop
         vertex 2.000000e+001 6.315001e+001 0.000000e+000
         vertex 1.862500e+001 6.278157e+001 3.150000e+000
         vertex 1.862500e+001 6.278157e+001 0.000000e+000
      endloop
   endfacet
   facet normal 6.413973e-001 -7.672089e-001 0.000000e+000
      outer loop
         vertex 1.862500e+001 6.278157e+001 0.000000e+000
         vertex 1.862500e+001 6.278157e+001 3.150000e+000
         vertex 1.761843e+001 6.177501e+001 3.150000e+000
      endloop
   endfacet
   facet normal 7.672089e-001 -6.413973e-001 0.000000e+000
      outer loop
         vertex 1.862500e+001 6.278157e+001 0.000000e+000
         vertex 1.761843e+001 6.177501e+001 3.150000e+000
         vertex 1.761843e+001 6.177501e+001 0.000000e+000
      endloop
   endfacet
   facet normal 9.390708e-001 -3.437238e-001 0.000000e+000
      outer loop
         vertex 1.761843e+001 6.177501e+001 0.000000e+000
         vertex 1.761843e+001 6.177501e+001 3.150000e+000
         vertex 1.725000e+001 6.040000e+001 3.150000e+000
      endloop
   endfacet
   facet normal 9.851210e-001 -1.718619e-001 0.000000e+000
      outer loop
         vertex 1.761843e+001 6.177501e+001 0.000000e+000
         vertex 1.725000e+001 6.040000e+001 3.150000e+000
         vertex 1.725000e+001 6.040000e+001 0.000000e+000
      endloop
   endfacet
   facet normal 9.851210e-001 1.718619e-001 0.000000e+000
      outer loop
         vertex 1.725000e+001 6.040000e+001 0.000000e+000
         vertex 1.725000e+001 6.040000e+001 3.150000e+000
         vertex 1.761843e+001 5.902501e+001 3.150000e+000
      endloop
   endfacet
   facet normal 9.390708e-001 3.437238e-001 0.000000e+000
      outer loop
         vertex 1.725000e+001 6.040000e+001 0.000000e+000
         vertex 1.761843e+001 5.902501e+001 3.150000e+000
         vertex 1.761843e+001 5.902501e+001 0.000000e+000
      endloop
   endfacet
   facet normal 7.672089e-001 6.413973e-001 0.000000e+000
      outer loop
         vertex 1.761843e+001 5.902501e+001 0.000000e+000
         vertex 1.761843e+001 5.902501e+001 3.150000e+000
         vertex 1.862500e+001 5.801843e+001 3.150000e+000
      endloop
   endfacet
   facet normal 6.413973e-001 7.672089e-001 0.000000e+000
      outer loop
         vertex 1.761843e+001 5.902501e+001 0.000000e+000
         vertex 1.862500e+001 5.801843e+001 3.150000e+000
         vertex 1.862500e+001 5.801843e+001 0.000000e+000
      endloop
   endfacet
   facet normal 3.437238e-001 9.390708e-001 0.000000e+000
      outer loop
         vertex 1.862500e+001 5.801843e+001 0.000000e+000
         vertex 1.862500e+001 5.801843e+001 3.150000e+000
         vertex 2.000000e+001 5.765001e+001 3.150000e+000
      endloop
   endfacet
   facet normal 1.718619e-001 9.851210e-001 0.000000e+000
      outer loop
         vertex 1.862500e+001 5.801843e+001 0.000000e+000
         vertex 2.000000e+001 5.765001e+001 3.150000e+000
         vertex 2.000000e+001 5.765001e+001 0.000000e+000
      endloop
   endfacet
   facet normal -1.718619e-001 9.851210e-001 0.000000e+000
      outer loop
         vertex 2.000000e+001 5.765001e+001 0.000000e+000
         vertex 2.000000e+001 5.765001e+001 3.150000e+000
         vertex 2.137500e+001 5.801843e+001 3.150000e+000
      endloop
   endfacet
   facet normal -3.437238e-001 9.390708e-001 0.000000e+000
      outer loop
         vertex 2.000000e+001 5.765001e+001 0.000000e+000
         vertex 2.137500e+001 5.801843e+001 3.150000e+000
         vertex 2.137500e+001 5.801843e+001 0.000000e+000
      endloop
   endfacet
   facet normal -6.413973e-001 7.672089e-001 0.000000e+000
      outer loop
         vertex 2.137500e+001 5.801843e+001 0.000000e+000
         vertex 2.137500e+001 5.801843e+001 3.150000e+000
         vertex 2.238157e+001 5.902501e+001 3.150000e+000
      endloop
   endfacet
   facet normal -7.672089e-001 6.413973e-001 0.000000e+000
      outer loop
         vertex 2.137500e+001 5.801843e+001 0.000000e+000
         vertex 2.238157e+001 5.902501e+001 3.150000e+000
         vertex 2.238157e+001 5.902501e+001 0.000000e+000
      endloop
   endfacet
   facet normal -9.390708e-001 3.437238e-001 0.000000e+000
      outer loop
         vertex 2.238157e+001 5.902501e+001 0.000000e+000
         vertex 2.238157e+001 5.902501e+001 3.150000e+000
         vertex 2.275000e+001 6.040000e+001 3.150000e+000
      endloop
   endfacet
   facet normal -5.341103e-001 -4.465236e-001 7.178738e-001
      outer loop
         vertex 2.238157e+001 6.177501e+001 3.150000e+000
         vertex 2.484974e+001 6.320000e+001 6.000000e+000
         vertex 2.137500e+001 6.278157e+001 3.150000e+000
      endloop
   endfacet
   facet normal -4.465236e-001 -5.341103e-001 7.178738e-001
      outer loop
         vertex 2.137500e+001 6.278157e+001 3.150000e+000
         vertex 2.484974e+001 6.320000e+001 6.000000e+000
         vertex 2.280000e+001 6.524975e+001 6.000000e+000
      endloop
   endfacet
   facet normal -2.392913e-001 -6.537559e-001 7.178738e-001
      outer loop
         vertex 2.137500e+001 6.278157e+001 3.150000e+000
         vertex 2.280000e+001 6.524975e+001 6.000000e+000
         vertex 2.000000e+001 6.315001e+001 3.150000e+000
      endloop
   endfacet
   facet normal -1.196456e-001 -6.858149e-001 7.178738e-001
      outer loop
         vertex 2.000000e+001 6.315001e+001 3.150000e+000
         vertex 2.280000e+001 6.524975e+001 6.000000e+000
         vertex 2.000000e+001 6.600000e+001 6.000000e+000
      endloop
   endfacet
   facet normal 1.196456e-001 -6.858149e-001 7.178738e-001
      outer loop
         vertex 2.000000e+001 6.315001e+001 3.150000e+000
         vertex 2.000000e+001 6.600000e+001 6.000000e+000
         vertex 1.862500e+001 6.278157e+001 3.150000e+000
      endloop
   endfacet
   facet normal 2.392913e-001 -6.537559e-001 7.178738e-001
      outer loop
         vertex 1.862500e+001 6.278157e+001 3.150000e+000
         vertex 2.000000e+001 6.600000e+001 6.000000e+000
         vertex 1.720000e+001 6.524975e+001 6.000000e+000
      endloop
   endfacet
   facet normal 4.465236e-001 -5.341103e-001 7.178738e-001
      outer loop
         vertex 1.862500e+001 6.278157e+001 3.150000e+000
         vertex 1.720000e+001 6.524975e+001 6.000000e+000
         vertex 1.761843e+001 6.177501e+001 3.150000e+000
      endloop
   endfacet
   facet normal 5.341103e-001 -4.465236e-001 7.178738e-001
      outer loop
         vertex 1.761843e+001 6.177501e+001 3.150000e+000
         vertex 1.720000e+001 6.524975e+001 6.000000e+000
         vertex 1.515026e+001 6.320000e+001 6.000000e+000
      endloop
   endfacet
   facet normal 6.537559e-001 -2.392913e-001 7.178738e-001
      outer loop
         vertex 1.761843e+001 6.177501e+001 3.150000e+000
         vertex 1.515026e+001 6.320000e+001 6.000000e+000
         vertex 1.725000e+001 6.040000e+001 3.150000e+000
      endloop
   endfacet
   facet normal 6.858149e-001 -1.196456e-001 7.178738e-001
      outer loop
         vertex 1.725000e+001 6.040000e+001 3.150000e+000
         vertex 1.515026e+001 6.320000e+001 6.000000e+000
         vertex 1.440000e+001 6.040000e+001 6.000000e+000
      endloop
   endfacet
   facet normal 6.858149e-001 1.196456e-001 7.178738e-001
      outer loop
         vertex 1.725000e+001 6.040000e+001 3.150000e+000
         vertex 1.440000e+001 6.040000e+001 6.000000e+000
         vertex 1.761843e+001 5.902501e+001 3.150000e+000
      endloop
   endfacet
   facet normal 6.537559e-001 2.392913e-001 7.178738e-001
      outer loop
         vertex 1.761843e+001 5.902501e+001 3.150000e+000
         vertex 1.440000e+001 6.040000e+001 6.000000e+000
         vertex 1.515026e+001 5.760000e+001 6.000000e+000
      endloop
   endfacet
   facet normal 5.341103e-001 4.465236e-001 7.178738e-001
      outer loop
         vertex 1.761843e+001 5.902501e+001 3.150000e+000
         vertex 1.515026e+001 5.760000e+001 6.000000e+000
         vertex 1.862500e+001 5.801843e+001 3.150000e+000
      endloop
   endfacet
   facet normal 4.465236e-001 5.341103e-001 7.178738e-001
      outer loop
         vertex 1.862500e+001 5.801843e+001 3.150000e+000
         vertex 1.515026e+001 5.760000e+001 6.000000e+000
         vertex 1.720000e+001 5.555026e+001 6.000000e+000
      endloop
   endfacet
   facet normal 2.392913e-001 6.537559e-001 7.178738e-001
      outer loop
         vertex 1.862500e+001 5.801843e+001 3.150000e+000
         vertex 1.720000e+001 5.555026e+001 6.000000e+000
         vertex 2.000000e+001 5.765001e+001 3.150000e+000
      endloop
   endfacet
   facet normal 1.196456e-001 6.858149e-001 7.178738e-001
      outer loop
         vertex 2.000000e+001 5.765001e+001 3.150000e+000
         vertex 1.720000e+001 5.555026e+001 6.000000e+000
         vertex 2.000000e+001 5.480000e+001 6.000000e+000
      endloop
   endfacet
   facet normal -1.196456e-001 6.858149e-001 7.178738e-001
      outer loop
         vertex 2.000000e+001 5.765001e+001 3.150000e+000
         vertex 2.000000e+001 5.480000e+001 6.000000e+000
         vertex 2.137500e+001 5.801843e+001 3.150000e+000
      endloop
   endfacet
   facet normal -2.392913e-001 6.537559e-001 7.178738e-001
      outer loop
         vertex 2.137500e+001 5.801843e+001 3.150000e+000
         vertex 2.000000e+001 5.480000e+001 6.000000e+000
         vertex 2.280000e+001 5.555026e+001 6.000000e+000
      endloop
   endfacet
   facet normal -4.465236e-001 5.341103e-001 7.178738e-001
      outer loop
         vertex 2.137500e+001 5.801843e+001 3.150000e+000
         vertex 2.280000e+001 5.555026e+001 6.000000e+000
         vertex 2.238157e+001 5.902501e+001 3.150000e+000
      endloop
   endfacet
   facet normal -5.341103e-001 4.465236e-001 7.178738e-001
      outer loop
         vertex 2.238157e+001 5.902501e+001 3.150000e+000
         vertex 2.280000e+001 5.555026e+001 6.000000e+000
         vertex 2.484974e+001 5.760000e+001 6.000000e+000
      endloop
   endfacet
   facet normal -6.537559e-001 2.392913e-001 7.178738e-001
      outer loop
         vertex 2.238157e+001 5.902501e+001 3.150000e+000
         vertex 2.484974e+001 5.760000e+001 6.000000e+000
         vertex 2.275000e+001 6.040000e+001 3.150000e+000
      endloop
   endfacet
   facet normal -6.858149e-001 1.196456e-001 7.178738e-001
      outer loop
         vertex 2.275000e+001 6.040000e+001 3.150000e+000
         vertex 2.484974e+001 5.760000e+001 6.000000e+000
         vertex 2.560000e+001 6.040000e+001 6.000000e+000
      endloop
   endfacet
   facet normal -6.858149e-001 -1.196456e-001 7.178738e-001
      outer loop
         vertex 2.275000e+001 6.040000e+001 3.150000e+000
         vertex 2.560000e+001 6.040000e+001 6.000000e+000
         vertex 2.238157e+001 6.177501e+001 3.150000e+000
      endloop
   endfacet
   facet normal -6.537559e-001 -2.392913e-001 7.178738e-001
      outer loop
         vertex 2.238157e+001 6.177501e+001 3.150000e+000
         vertex 2.560000e+001 6.040000e+001 6.000000e+000
         vertex 2.484974e+001 6.320000e+001 6.000000e+000
      endloop
   endfacet
   facet normal 0.000000e+000 1.000000e+000 0.000000e+000
      outer loop
         vertex 4.000000e+001 1.580000e+002 0.000000e+000
         vertex 0.000000e+000 1.580000e+002 0.000000e+000
         vertex 1.350000e+001 1.580000e+002 3.500000e+000
      endloop
   endfacet
   facet normal 0.000000e+000 1.000000e+000 0.000000e+000
      outer loop
         vertex 1.350000e+001 1.580000e+002 3.500000e+000
         vertex 0.000000e+000 1.580000e+002 0.000000e+000
         vertex 0.000000e+000 1.580000e+002 3.500000e+000
      endloop
   endfacet
   facet normal 0.000000e+000 1.000000e+000 0.000000e+000
      outer loop
         vertex 4.000000e+001 1.580000e+002 3.500000e+000
         vertex 4.000000e+001 1.580000e+002 0.000000e+000
         vertex 2.650000e+001 1.580000e+002 3.500000e+000
      endloop
   endfacet
   facet normal 0.000000e+000 1.000000e+000 0.000000e+000
      outer loop
         vertex 2.650000e+001 1.580000e+002 3.500000e+000
         vertex 4.000000e+001 1.580000e+002 0.000000e+000
         vertex 1.350000e+001 1.580000e+002 3.500000e+000
      endloop
   endfacet
   facet normal 0.000000e+000 1.000000e+000 0.000000e+000
      outer loop
         vertex 2.650000e+001 1.580000e+002 3.500000e+000
         vertex 1.350000e+001 1.580000e+002 3.500000e+000
         vertex 2.650000e+001 1.580000e+002 6.000000e+000
      endloop
   endfacet
   facet normal 0.000000e+000 1.000000e+000 0.000000e+000
      outer loop
         vertex 2.650000e+001 1.580000e+002 6.000000e+000
         vertex 1.350000e+001 1.580000e+002 3.500000e+000
         vertex 1.350000e+001 1.580000e+002 6.000000e+000
      endloop
   endfacet
   facet normal 0.000000e+000 -1.000000e+000 0.000000e+000
      outer loop
         vertex 1.350000e+001 0.000000e+000 3.500000e+000
         vertex 0.000000e+000 0.000000e+000 3.500000e+000
         vertex 0.000000e+000 0.000000e+000 0.000000e+000
      endloop
   endfacet
   facet normal 0.000000e+000 -1.000000e+000 0.000000e+000
      outer loop
         vertex 4.000000e+001 0.000000e+000 0.000000e+000
         vertex 4.000000e+001 0.000000e+000 3.500000e+000
         vertex 2.650000e+001 0.000000e+000 3.500000e+000
      endloop
   endfacet
   facet normal 0.000000e+000 -1.000000e+000 0.000000e+000
      outer loop
         vertex 2.650000e+001 0.000000e+000 6.000000e+000
         vertex 1.350000e+001 0.000000e+000 6.000000e+000
         vertex 2.650000e+001 0.000000e+000 3.500000e+000
      endloop
   endfacet
   facet normal 0.000000e+000 -1.000000e+000 0.000000e+000
      outer loop
         vertex 2.650000e+001 0.000000e+000 3.500000e+000
         vertex 1.350000e+001 0.000000e+000 6.000000e+000
         vertex 1.350000e+001 0.000000e+000 3.500000e+000
      endloop
   endfacet
   facet normal 0.000000e+000 -1.000000e+000 0.000000e+000
      outer loop
         vertex 2.650000e+001 0.000000e+000 3.500000e+000
         vertex 1.350000e+001 0.000000e+000 3.500000e+000
         vertex 4.000000e+001 0.000000e+000 0.000000e+000
      endloop
   endfacet
   facet normal 0.000000e+000 -1.000000e+000 0.000000e+000
      outer loop
         vertex 4.000000e+001 0.000000e+000 0.000000e+000
         vertex 1.350000e+001 0.000000e+000 3.500000e+000
         vertex 0.000000e+000 0.000000e+000 0.000000e+000
      endloop
   endfacet
   facet normal 5.341103e-001 -4.465236e-001 -7.178738e-001
      outer loop
         vertex 1.761843e+001 1.503750e+002 2.850000e+000
         vertex 1.515026e+001 1.518000e+002 0.000000e+000
         vertex 1.862500e+001 1.513816e+002 2.850000e+000
      endloop
   endfacet
   facet normal 4.465236e-001 -5.341103e-001 -7.178738e-001
      outer loop
         vertex 1.862500e+001 1.513816e+002 2.850000e+000
         vertex 1.515026e+001 1.518000e+002 0.000000e+000
         vertex 1.720000e+001 1.538497e+002 0.000000e+000
      endloop
   endfacet
   facet normal 2.392913e-001 -6.537559e-001 -7.178738e-001
      outer loop
         vertex 1.862500e+001 1.513816e+002 2.850000e+000
         vertex 1.720000e+001 1.538497e+002 0.000000e+000
         vertex 2.000000e+001 1.517500e+002 2.850000e+000
      endloop
   endfacet
   facet normal 1.196456e-001 -6.858149e-001 -7.178738e-001
      outer loop
         vertex 2.000000e+001 1.517500e+002 2.850000e+000
         vertex 1.720000e+001 1.538497e+002 0.000000e+000
         vertex 2.000000e+001 1.546000e+002 0.000000e+000
      endloop
   endfacet
   facet normal -1.196456e-001 -6.858149e-001 -7.178738e-001
      outer loop
         vertex 2.000000e+001 1.517500e+002 2.850000e+000
         vertex 2.000000e+001 1.546000e+002 0.000000e+000
         vertex 2.137500e+001 1.513816e+002 2.850000e+000
      endloop
   endfacet
   facet normal -2.392913e-001 -6.537559e-001 -7.178738e-001
      outer loop
         vertex 2.137500e+001 1.513816e+002 2.850000e+000
         vertex 2.000000e+001 1.546000e+002 0.000000e+000
         vertex 2.280000e+001 1.538497e+002 0.000000e+000
      endloop
   endfacet
   facet normal -4.465236e-001 -5.341103e-001 -7.178738e-001
      outer loop
         vertex 2.137500e+001 1.513816e+002 2.850000e+000
         vertex 2.280000e+001 1.538497e+002 0.000000e+000
         vertex 2.238157e+001 1.503750e+002 2.850000e+000
      endloop
   endfacet
   facet normal -5.341103e-001 -4.465236e-001 -7.178738e-001
      outer loop
         vertex 2.238157e+001 1.503750e+002 2.850000e+000
         vertex 2.280000e+001 1.538497e+002 0.000000e+000
         vertex 2.484974e+001 1.518000e+002 0.000000e+000
      endloop
   endfacet
   facet normal -6.537559e-001 -2.392913e-001 -7.178738e-001
      outer loop
         vertex 2.238157e+001 1.503750e+002 2.850000e+000
         vertex 2.484974e+001 1.518000e+002 0.000000e+000
         vertex 2.275000e+001 1.490000e+002 2.850000e+000
      endloop
   endfacet
   facet normal -6.858149e-001 -1.196456e-001 -7.178738e-001
      outer loop
         vertex 2.275000e+001 1.490000e+002 2.850000e+000
         vertex 2.484974e+001 1.518000e+002 0.000000e+000
         vertex 2.560000e+001 1.490000e+002 0.000000e+000
      endloop
   endfacet
   facet normal -6.858149e-001 1.196456e-001 -7.178738e-001
      outer loop
         vertex 2.275000e+001 1.490000e+002 2.850000e+000
         vertex 2.560000e+001 1.490000e+002 0.000000e+000
         vertex 2.238157e+001 1.476250e+002 2.850000e+000
      endloop
   endfacet
   facet normal -6.537559e-001 2.392913e-001 -7.178738e-001
      outer loop
         vertex 2.238157e+001 1.476250e+002 2.850000e+000
         vertex 2.560000e+001 1.490000e+002 0.000000e+000
         vertex 2.484974e+001 1.462000e+002 0.000000e+000
      endloop
   endfacet
   facet normal -5.341103e-001 4.465236e-001 -7.178738e-001
      outer loop
         vertex 2.238157e+001 1.476250e+002 2.850000e+000
         vertex 2.484974e+001 1.462000e+002 0.000000e+000
         vertex 2.137500e+001 1.466184e+002 2.850000e+000
      endloop
   endfacet
   facet normal -4.465236e-001 5.341103e-001 -7.178738e-001
      outer loop
         vertex 2.137500e+001 1.466184e+002 2.850000e+000
         vertex 2.484974e+001 1.462000e+002 0.000000e+000
         vertex 2.280000e+001 1.441503e+002 0.000000e+000
      endloop
   endfacet
   facet normal -2.392913e-001 6.537559e-001 -7.178738e-001
      outer loop
         vertex 2.137500e+001 1.466184e+002 2.850000e+000
         vertex 2.280000e+001 1.441503e+002 0.000000e+000
         vertex 2.000000e+001 1.462500e+002 2.850000e+000
      endloop
   endfacet
   facet normal -1.196456e-001 6.858149e-001 -7.178738e-001
      outer loop
         vertex 2.000000e+001 1.462500e+002 2.850000e+000
         vertex 2.280000e+001 1.441503e+002 0.000000e+000
         vertex 2.000000e+001 1.434000e+002 0.000000e+000
      endloop
   endfacet
   facet normal 1.196456e-001 6.858149e-001 -7.178738e-001
      outer loop
         vertex 2.000000e+001 1.462500e+002 2.850000e+000
         vertex 2.000000e+001 1.434000e+002 0.000000e+000
         vertex 1.862500e+001 1.466184e+002 2.850000e+000
      endloop
   endfacet
   facet normal 2.392913e-001 6.537559e-001 -7.178738e-001
      outer loop
         vertex 1.862500e+001 1.466184e+002 2.850000e+000
         vertex 2.000000e+001 1.434000e+002 0.000000e+000
         vertex 1.720000e+001 1.441503e+002 0.000000e+000
      endloop
   endfacet
   facet normal 4.465236e-001 5.341103e-001 -7.178738e-001
      outer loop
         vertex 1.862500e+001 1.466184e+002 2.850000e+000
         vertex 1.720000e+001 1.441503e+002 0.000000e+000
         vertex 1.761843e+001 1.476250e+002 2.850000e+000
      endloop
   endfacet
   facet normal 5.341103e-001 4.465236e-001 -7.178738e-001
      outer loop
         vertex 1.761843e+001 1.476250e+002 2.850000e+000
         vertex 1.720000e+001 1.441503e+002 0.000000e+000
         vertex 1.515026e+001 1.462000e+002 0.000000e+000
      endloop
   endfacet
   facet normal 6.537559e-001 2.392913e-001 -7.178738e-001
      outer loop
         vertex 1.761843e+001 1.476250e+002 2.850000e+000
         vertex 1.515026e+001 1.462000e+002 0.000000e+000
         vertex 1.725000e+001 1.490000e+002 2.850000e+000
      endloop
   endfacet
   facet normal 6.858149e-001 1.196456e-001 -7.178738e-001
      outer loop
         vertex 1.725000e+001 1.490000e+002 2.850000e+000
         vertex 1.515026e+001 1.462000e+002 0.000000e+000
         vertex 1.440000e+001 1.490000e+002 0.000000e+000
      endloop
   endfacet
   facet normal 6.858149e-001 -1.196456e-001 -7.178738e-001
      outer loop
         vertex 1.725000e+001 1.490000e+002 2.850000e+000
         vertex 1.440000e+001 1.490000e+002 0.000000e+000
         vertex 1.761843e+001 1.503750e+002 2.850000e+000
      endloop
   endfacet
   facet normal 6.537559e-001 -2.392913e-001 -7.178738e-001
      outer loop
         vertex 1.761843e+001 1.503750e+002 2.850000e+000
         vertex 1.440000e+001 1.490000e+002 0.000000e+000
         vertex 1.515026e+001 1.518000e+002 0.000000e+000
      endloop
   endfacet
   facet normal 5.341103e-001 -4.465236e-001 -7.178738e-001
      outer loop
         vertex 1.761843e+001 1.037500e+001 2.850000e+000
         vertex 1.515026e+001 1.180001e+001 0.000000e+000
         vertex 1.862500e+001 1.138157e+001 2.850000e+000
      endloop
   endfacet
   facet normal 4.465236e-001 -5.341103e-001 -7.178738e-001
      outer loop
         vertex 1.862500e+001 1.138157e+001 2.850000e+000
         vertex 1.515026e+001 1.180001e+001 0.000000e+000
         vertex 1.720000e+001 1.384974e+001 0.000000e+000
      endloop
   endfacet
   facet normal 2.392913e-001 -6.537559e-001 -7.178738e-001
      outer loop
         vertex 1.862500e+001 1.138157e+001 2.850000e+000
         vertex 1.720000e+001 1.384974e+001 0.000000e+000
         vertex 2.000000e+001 1.175000e+001 2.850000e+000
      endloop
   endfacet
   facet normal 1.196456e-001 -6.858149e-001 -7.178738e-001
      outer loop
         vertex 2.000000e+001 1.175000e+001 2.850000e+000
         vertex 1.720000e+001 1.384974e+001 0.000000e+000
         vertex 2.000000e+001 1.460000e+001 0.000000e+000
      endloop
   endfacet
   facet normal -1.196456e-001 -6.858149e-001 -7.178738e-001
      outer loop
         vertex 2.000000e+001 1.175000e+001 2.850000e+000
         vertex 2.000000e+001 1.460000e+001 0.000000e+000
         vertex 2.137500e+001 1.138157e+001 2.850000e+000
      endloop
   endfacet
   facet normal -2.392913e-001 -6.537559e-001 -7.178738e-001
      outer loop
         vertex 2.137500e+001 1.138157e+001 2.850000e+000
         vertex 2.000000e+001 1.460000e+001 0.000000e+000
         vertex 2.280000e+001 1.384974e+001 0.000000e+000
      endloop
   endfacet
   facet normal -4.465236e-001 -5.341103e-001 -7.178738e-001
      outer loop
         vertex 2.137500e+001 1.138157e+001 2.850000e+000
         vertex 2.280000e+001 1.384974e+001 0.000000e+000
         vertex 2.238157e+001 1.037500e+001 2.850000e+000
      endloop
   endfacet
   facet normal -5.341103e-001 -4.465236e-001 -7.178738e-001
      outer loop
         vertex 2.238157e+001 1.037500e+001 2.850000e+000
         vertex 2.280000e+001 1.384974e+001 0.000000e+000
         vertex 2.484974e+001 1.180001e+001 0.000000e+000
      endloop
   endfacet
   facet normal -6.537559e-001 -2.392913e-001 -7.178738e-001
      outer loop
         vertex 2.238157e+001 1.037500e+001 2.850000e+000
         vertex 2.484974e+001 1.180001e+001 0.000000e+000
         vertex 2.275000e+001 9.000004e+000 2.850000e+000
      endloop
   endfacet
   facet normal -6.858149e-001 -1.196456e-001 -7.178738e-001
      outer loop
         vertex 2.275000e+001 9.000004e+000 2.850000e+000
         vertex 2.484974e+001 1.180001e+001 0.000000e+000
         vertex 2.560000e+001 9.000004e+000 0.000000e+000
      endloop
   endfacet
   facet normal -6.858149e-001 1.196456e-001 -7.178738e-001
      outer loop
         vertex 2.275000e+001 9.000004e+000 2.850000e+000
         vertex 2.560000e+001 9.000004e+000 0.000000e+000
         vertex 2.238157e+001 7.625006e+000 2.850000e+000
      endloop
   endfacet
   facet normal -6.537559e-001 2.392913e-001 -7.178738e-001
      outer loop
         vertex 2.238157e+001 7.625006e+000 2.850000e+000
         vertex 2.560000e+001 9.000004e+000 0.000000e+000
         vertex 2.484974e+001 6.200001e+000 0.000000e+000
      endloop
   endfacet
   facet normal -5.341103e-001 4.465236e-001 -7.178738e-001
      outer loop
         vertex 2.238157e+001 7.625006e+000 2.850000e+000
         vertex 2.484974e+001 6.200001e+000 0.000000e+000
         vertex 2.137500e+001 6.618433e+000 2.850000e+000
      endloop
   endfacet
   facet normal -4.465236e-001 5.341103e-001 -7.178738e-001
      outer loop
         vertex 2.137500e+001 6.618433e+000 2.850000e+000
         vertex 2.484974e+001 6.200001e+000 0.000000e+000
         vertex 2.280000e+001 4.150264e+000 0.000000e+000
      endloop
   endfacet
   facet normal -2.392913e-001 6.537559e-001 -7.178738e-001
      outer loop
         vertex 2.137500e+001 6.618433e+000 2.850000e+000
         vertex 2.280000e+001 4.150264e+000 0.000000e+000
         vertex 2.000000e+001 6.250001e+000 2.850000e+000
      endloop
   endfacet
   facet normal -1.196456e-001 6.858149e-001 -7.178738e-001
      outer loop
         vertex 2.000000e+001 6.250001e+000 2.850000e+000
         vertex 2.280000e+001 4.150264e+000 0.000000e+000
         vertex 2.000000e+001 3.400005e+000 0.000000e+000
      endloop
   endfacet
   facet normal 1.196456e-001 6.858149e-001 -7.178738e-001
      outer loop
         vertex 2.000000e+001 6.250001e+000 2.850000e+000
         vertex 2.000000e+001 3.400005e+000 0.000000e+000
         vertex 1.862500e+001 6.618433e+000 2.850000e+000
      endloop
   endfacet
   facet normal 2.392913e-001 6.537559e-001 -7.178738e-001
      outer loop
         vertex 1.862500e+001 6.618433e+000 2.850000e+000
         vertex 2.000000e+001 3.400005e+000 0.000000e+000
         vertex 1.720000e+001 4.150264e+000 0.000000e+000
      endloop
   endfacet
   facet normal 4.465236e-001 5.341103e-001 -7.178738e-001
      outer loop
         vertex 1.862500e+001 6.618433e+000 2.850000e+000
         vertex 1.720000e+001 4.150264e+000 0.000000e+000
         vertex 1.761843e+001 7.625006e+000 2.850000e+000
      endloop
   endfacet
   facet normal 5.341103e-001 4.465236e-001 -7.178738e-001
      outer loop
         vertex 1.761843e+001 7.625006e+000 2.850000e+000
         vertex 1.720000e+001 4.150264e+000 0.000000e+000
         vertex 1.515026e+001 6.200001e+000 0.000000e+000
      endloop
   endfacet
   facet normal 6.537559e-001 2.392913e-001 -7.178738e-001
      outer loop
         vertex 1.761843e+001 7.625006e+000 2.850000e+000
         vertex 1.515026e+001 6.200001e+000 0.000000e+000
         vertex 1.725000e+001 9.000004e+000 2.850000e+000
      endloop
   endfacet
   facet normal 6.858149e-001 1.196456e-001 -7.178738e-001
      outer loop
         vertex 1.725000e+001 9.000004e+000 2.850000e+000
         vertex 1.515026e+001 6.200001e+000 0.000000e+000
         vertex 1.440000e+001 9.000004e+000 0.000000e+000
      endloop
   endfacet
   facet normal 6.858149e-001 -1.196456e-001 -7.178738e-001
      outer loop
         vertex 1.725000e+001 9.000004e+000 2.850000e+000
         vertex 1.440000e+001 9.000004e+000 0.000000e+000
         vertex 1.761843e+001 1.037500e+001 2.850000e+000
      endloop
   endfacet
   facet normal 6.537559e-001 -2.392913e-001 -7.178738e-001
      outer loop
         vertex 1.761843e+001 1.037500e+001 2.850000e+000
         vertex 1.440000e+001 9.000004e+000 0.000000e+000
         vertex 1.515026e+001 1.180001e+001 0.000000e+000
      endloop
   endfacet
endsolid